<svg xmlns="http://www.w3.org/2000/svg" viewBox="0 0 750 500"><g id="freepik--background-complete--inject-6"><rect x="132.12" y="49.58" width="6.36" height="91.23" style="fill:#e0e0e0"></rect><rect x="44.21" y="49.58" width="91.23" height="91.23" style="fill:#f5f5f5"></rect><rect x="46.74" y="52.11" width="86.18" height="86.18" style="fill:#fff"></rect><path d="M135.45,49.58l-.16.17-.47.5L133,52.14l0,0h0c-7,.05-23.65.08-43.09.08s-36.1,0-43.09-.08h0v0c-.81-.81-1.43-1.45-1.86-1.89l-.48-.5-.16-.17.18.15.49.48c.45.43,1.08,1.06,1.9,1.86h0c7-.05,23.65-.09,43.09-.09s36.1,0,43.09.09h0l1.9-1.86.49-.48Z" style="fill:#e0e0e0"></path><path d="M44.21,140.81l.16-.17.48-.5,1.86-1.89v0h0c7,0,23.65-.08,43.09-.08s36.1,0,43.09.08h0l0,0,1.86,1.89.47.5.16.17-.18-.15-.49-.48-1.9-1.86,0,0c-7,0-23.65.08-43.09.08s-36.1,0-43.09-.08l0,0c-.82.8-1.45,1.43-1.9,1.86l-.49.48Z" style="fill:#e0e0e0"></path><rect x="76.12" y="78.85" width="31.68" height="31.68" style="fill:#e0e0e0"></rect><rect x="47.77" y="205.71" width="60.79" height="15.54" style="fill:#ebebeb"></rect><path d="M82.86,237.63a2,2,0,0,1,0-.29c0-.2,0-.47,0-.79,0-.74,0-1.76,0-3.06,0-2.69-.06-6.54-.11-11.41l.19.18-60.79.12.31-.3h0V230c0,2.59,0,5.15,0,7.65l-.3-.3,43.32.14,12.79.08,3.45,0,.91,0a1.27,1.27,0,0,1,.32,0h-.28l-.87,0-3.39,0-12.72.08-43.53.14h-.3v-.29c0-2.5,0-5.06,0-7.65v-7.89h0l.31-.3,60.79.12h.19v.18c0,4.91-.08,8.81-.11,11.52,0,1.29,0,2.29,0,3,0,.32,0,.57,0,.77A1.15,1.15,0,0,1,82.86,237.63Z" style="fill:#e0e0e0"></path><rect x="132.12" y="167.76" width="6.36" height="91.23" style="fill:#e0e0e0"></rect><rect x="44.21" y="167.76" width="91.23" height="91.23" style="fill:#f5f5f5"></rect><rect x="46.74" y="170.29" width="86.18" height="86.18" style="fill:#fff"></rect><path d="M135.45,167.76a1.62,1.62,0,0,1-.16.18l-.47.49-1.86,1.9h0c-7,0-23.65.09-43.09.09s-36.1,0-43.09-.09h0c-.81-.82-1.43-1.45-1.86-1.9l-.48-.49a1.62,1.62,0,0,1-.16-.18,1.62,1.62,0,0,1,.18.16l.49.48c.45.43,1.08,1,1.9,1.86l0,0c7-.05,23.65-.08,43.09-.08s36.1,0,43.09.08l0,0,1.9-1.86.49-.48A1.62,1.62,0,0,1,135.45,167.76Z" style="fill:#e0e0e0"></path><path d="M44.21,259a1.62,1.62,0,0,1,.16-.18l.48-.49,1.86-1.9h0c7-.05,23.65-.09,43.09-.09s36.1,0,43.09.09h0l1.86,1.9.47.49a1.62,1.62,0,0,1,.16.18,1.62,1.62,0,0,1-.18-.16l-.49-.47-1.9-1.86h0c-7,.05-23.65.08-43.09.08s-36.1,0-43.09-.08h0l-1.9,1.86-.49.47A1.62,1.62,0,0,1,44.21,259Z" style="fill:#e0e0e0"></path><rect x="76.12" y="197.04" width="31.68" height="31.68" style="fill:#e0e0e0"></rect><ellipse cx="105.67" cy="464.32" rx="33.6" ry="9.49" style="fill:#f5f5f5"></ellipse><path d="M659.71,432.14c-5.59-6.19-13.46-9.72-21.09-13.09l-51.78.53c-2.72,2.23-1,6.61.95,9.54,7.24,10.84,15.6,21.25,26.55,28.34s24.85,10.48,37.27,6.54c4.91-1.56,9.65-4.39,12.22-8.85C668,447.93,665.3,438.32,659.71,432.14Z" style="fill:#f5f5f5"></path><polygon points="559.4 470.48 193.37 470.48 201.63 448.78 552.02 448.78 559.4 470.48" style="fill:#f5f5f5"></polygon><rect x="397.69" y="34.81" width="60.79" height="15.54" style="fill:#ebebeb"></rect><path d="M432.78,66.72a.9.9,0,0,1,0-.28c0-.21,0-.47,0-.8,0-.73,0-1.75-.05-3.06,0-2.68-.06-6.54-.1-11.4l.19.18L372,51.48l.31-.3h0v4c0,1.32,0,2.63,0,3.93v7.64l-.3-.29,43.32.13,12.78.09,3.46,0,.91,0,.32,0a.84.84,0,0,1-.28,0l-.87,0-3.39,0-12.72.08L372,67h-.31V51.19h0l.31-.3,60.79.12H433v.18c-.05,4.91-.08,8.8-.11,11.51,0,1.29,0,2.3,0,3,0,.31,0,.57,0,.77S432.78,66.73,432.78,66.72Z" style="fill:#e0e0e0"></path><rect x="659.16" y="184.37" width="60.79" height="15.54" style="fill:#ebebeb"></rect><path d="M694.24,216.28a1.58,1.58,0,0,1,0-.28c0-.21,0-.47,0-.8,0-.73,0-1.75,0-3,0-2.69-.06-6.55-.11-11.41l.19.18-60.79.12.31-.3h0v7.89c0,2.59,0,5.14,0,7.64l-.3-.29,43.32.13,12.79.09,3.46,0h.9l.32,0a.79.79,0,0,1-.28,0l-.87,0-3.39,0-12.72.08-43.53.14h-.3v-.3c0-2.5,0-5.05,0-7.64v-7.89h0l.31-.3,60.79.12h.19v.18c0,4.91-.08,8.8-.1,11.51,0,1.29,0,2.3-.05,3,0,.32,0,.57,0,.77S694.25,216.29,694.24,216.28Z" style="fill:#e0e0e0"></path><rect x="452.67" y="335.03" width="64.41" height="15.79" style="fill:#ebebeb"></rect><path d="M241.41,360.09a1.85,1.85,0,0,1,0-.3c0-.23,0-.52,0-.87,0-.8,0-1.91-.05-3.34,0-2.92-.06-7.12-.11-12.42l.2.2-63.6.12.32-.32h0v4.32c0,1.43,0,2.86,0,4.27v8.33l-.32-.32,45.33.15,13.38.09,3.62,0,.94,0,.34,0a.87.87,0,0,1-.3,0l-.9,0-3.55.05-13.31.09-45.55.14h-.32V343.17h0l.33-.33,63.6.13h.2v.2c-.05,5.35-.09,9.59-.11,12.54,0,1.41,0,2.5-.05,3.29,0,.34,0,.62,0,.83A1.15,1.15,0,0,1,241.41,360.09Z" style="fill:#e0e0e0"></path><path d="M250,343.16s0-.12,0-.33,0-.53,0-.89c0-.84,0-2,0-3.4,0-3-.08-7.16-.13-12.32l.23.23-38.21.1.32-.33h0v8.69c0,2.84,0,5.59,0,8.22l-.3-.31,27.33.14,8,.09,2.15,0a4.27,4.27,0,0,1,.76,0,6.22,6.22,0,0,1-.69,0l-2.08,0-7.9.09-27.54.15h-.31v-.31c0-2.63,0-5.38,0-8.22,0-1.41,0-2.85,0-4.31v-4.38h0l.33-.33L250,326h.24v.23c-.06,5.22-.1,9.46-.13,12.46,0,1.41,0,2.53-.06,3.35A7.32,7.32,0,0,1,250,343.16Z" style="fill:#e0e0e0"></path><path d="M652.08,86.91a1,1,0,0,1,0-.3c0-.23,0-.52,0-.87,0-.8,0-1.91,0-3.33,0-2.93-.06-7.13-.11-12.43l.2.2-63.61.12c.15-.14-.33.33.32-.32h0V86.91l-.32-.31,45.33.14,13.38.09,3.61,0,1,0,.34,0a1.16,1.16,0,0,1-.3,0l-.91,0-3.55,0-13.3.09-45.55.14h-.32V78.58c0-1.41,0-2.83,0-4.27V70h0c.65-.65.19-.18.33-.33l63.61.13h.19V70c0,5.35-.08,9.59-.11,12.54,0,1.41,0,2.51,0,3.29,0,.34,0,.62,0,.84S652.08,86.92,652.08,86.91Z" style="fill:#e0e0e0"></path><path d="M589.28,88.13l-.39-.4h-1.24V86.48l-.39-.39h.39V70.81h-.37l.37-.38V69.8l.15-.17.22-.22.11-.11h0l.19-.13a.37.37,0,0,1,.39,0h.21l.38-.38v.38l62.08.13v-.52l.52.52h.89v.89l.51.5h-.51l-.17,16a.13.13,0,0,0,0,.06l.07.07-.12.31v0a.35.35,0,0,1-.07.12.38.38,0,0,1-.18.13h0l-.33.13-.07-.08h-.06l-4.47.06L634,87.59l-44.74.14Zm0-2,44.51.14,17.75.15-.06-4-.11-11.73-62.09.12Z" style="fill:#ff9a6c"></path><path d="M660.7,70a1.27,1.27,0,0,1,0-.32c0-.25,0-.54,0-.9,0-.83,0-2-.06-3.4,0-3-.07-7.16-.12-12.32l.23.24-38.21.09c-.3.29.39-.4.32-.33h0v4.39c0,1.45,0,2.89,0,4.31,0,2.83,0,5.58,0,8.21l-.31-.31,27.34.15,8,.08,2.14,0a6,6,0,0,1,.77,0,6.53,6.53,0,0,1-.69,0l-2.09,0-7.89.08-27.55.15h-.31V70c0-2.63,0-5.38,0-8.21v-8.7h0c-.07.07.61-.62.33-.32l38.21.09h.24V53c0,5.22-.09,9.46-.12,12.47,0,1.4,0,2.52-.06,3.34A9.28,9.28,0,0,1,660.7,70Z" style="fill:#e0e0e0"></path><path d="M623.29,71.19l-.4-.4h-1.22V69.56l-.39-.4h.39V53.21h-.37l.52-.52h0l.13-.13a2.94,2.94,0,0,1,.25-.25l.35-.36v0l.11-.11v.2l.17.16,37.13.09v-.5l.49.5h1v1l.47.47h-.47l-.18,15.09c0,.42,0,.72,0,.93l.07.07-.1.25c0,.17-.09.24-.19.28a.61.61,0,0,1-.14.07l-.27.1-.07-.06-.5,0-10,.12-26.75.14Zm0-2,36.65.27h.23l-.08-4.08L660,53.78l-36.67.09Z" style="fill:#ff9a6c"></path><path d="M252.52,77.18a2.08,2.08,0,0,1,0-.31c0-.23,0-.51,0-.87,0-.8,0-1.91,0-3.33,0-2.93-.06-7.13-.11-12.43l.2.2-63.6.13c.14-.15-.33.32.32-.33h0v8.6q0,4.23,0,8.33l-.32-.32,45.33.14,13.38.1,3.62,0,.95,0a1.32,1.32,0,0,1,.33,0,1.38,1.38,0,0,1-.29,0l-.91,0-3.55,0-13.31.09-45.55.15h-.31v-.32q0-4.09,0-8.33v-8.6h0c.65-.65.18-.18.33-.32l63.6.12h.2v.2c-.05,5.35-.09,9.59-.11,12.55,0,1.4,0,2.5-.05,3.29,0,.34,0,.61,0,.83A1.39,1.39,0,0,1,252.52,77.18Z" style="fill:#e0e0e0"></path><path d="M703.31,328.42a2.08,2.08,0,0,1,0-.31c0-.22,0-.51,0-.87,0-.79,0-1.9,0-3.33,0-2.92-.06-7.13-.11-12.42l.2.19-63.6.13.32-.32h0v8.58q0,4.25,0,8.33l-.32-.32,45.33.15,13.38.09,3.62,0,1,0,.33,0a.83.83,0,0,1-.29,0l-.91,0-3.55,0-13.31.1-45.55.14h-.31v-.32q0-4.08,0-8.33v-8.58h0c.65-.66.18-.19.33-.33l63.6.13h.2v.2c0,5.35-.09,9.59-.11,12.54,0,1.41,0,2.5,0,3.29,0,.34,0,.61,0,.83A1.15,1.15,0,0,1,703.31,328.42Z" style="fill:#e0e0e0"></path><path d="M711.94,311.48a1.34,1.34,0,0,1,0-.32c0-.24,0-.54,0-.9q0-1.25-.06-3.39c0-3-.08-7.16-.13-12.32l.24.23-38.22.09.32-.32h0v8.71q0,4.26,0,8.21l-.31-.31,27.34.15,8,.09,2.15,0,.77,0a3.25,3.25,0,0,1-.7,0l-2.08,0-7.9.09-27.54.15h-.31v-.32q0-3.94,0-8.21c0-1.41,0-2.85,0-4.31v-4.4h0l.33-.33,38.22.09h.23v.24c0,5.22-.1,9.46-.13,12.46,0,1.41,0,2.52-.06,3.34S712,311.5,711.94,311.48Z" style="fill:#e0e0e0"></path></g><g id="freepik--Table--inject-6"><path d="M732.84,376.85c0,.15-160.05.26-357.45.26S17.91,377,17.91,376.85s160-.26,357.48-.26S732.84,376.71,732.84,376.85Z" style="fill:#263238"></path></g><g id="freepik--Monitor--inject-6"><polygon points="177.07 95.99 177.07 313.17 542.64 313.17 542.64 96.53 177.07 95.99" style="fill:#263238"></polygon><path d="M375.81,302.82a17.69,17.69,0,1,1-31.9,0H333.15v67.61h53.42V302.82Z" style="fill:#263238"></path><rect x="177.07" y="301.12" width="365.57" height="13.64" style="fill:#263238"></rect><rect x="180.39" y="99.82" width="358.94" height="201.3" style="fill:#90CAF9"></rect><rect x="288.82" y="366.09" width="142.08" height="10.76" style="fill:#263238"></rect><g style="opacity:0.1"><polygon points="419.65 99.82 226.1 301.12 286.03 301.12 481.25 99.82 419.65 99.82" style="fill:#fff"></polygon></g><g style="opacity:0.1"><polygon points="182.09 101.28 182.86 233.13 311.33 100.66 182.09 101.28" style="fill:#fff"></polygon></g><g style="opacity:0.1"><polygon points="495.3 99.82 301.74 301.12 325.32 301.12 520.54 99.82 495.3 99.82" style="fill:#fff"></polygon></g><g style="opacity:0.1"><polygon points="319.72 99.82 182.09 242.96 182.09 267.77 344.96 99.82 319.72 99.82" style="fill:#fff"></polygon></g><g style="opacity:0.1"><path d="M539.33,165.54c0,1.41-134.92,134.91-134.92,134.91h56.41l77.81-77.81Z" style="fill:#fff"></path></g><path d="M187.54,294.5c-.15,0-.26-41.35-.26-92.36s.11-92.36.26-92.36.26,41.34.26,92.36S187.68,294.5,187.54,294.5Z" style="fill:#fff"></path><path d="M389,314.83c0,.15-12.74.26-28.46.26s-28.45-.11-28.45-.26,12.74-.26,28.45-.26S389,314.69,389,314.83Z" style="fill:#455a64"></path><path d="M430.21,366c0,.14-31.73.26-70.87.26s-70.87-.12-70.87-.26,31.72-.26,70.87-.26S430.21,365.9,430.21,366Z" style="fill:#455a64"></path></g><g id="freepik--CPU--inject-6"><rect x="561.8" y="99.82" width="128" height="273.23" rx="12.8" style="fill:#263238"></rect><rect x="569.59" y="118.89" width="111.2" height="25.99" style="fill:#455a64"></rect><rect x="660.97" y="372.11" width="6.65" height="4.59" rx="2.13" style="fill:#263238"></rect><rect x="584.21" y="372.11" width="6.65" height="4.59" rx="2.13" style="fill:#263238"></rect><path d="M677.71,112.29a4,4,0,0,0,.57-.09,2.55,2.55,0,0,0,1.4-.91,2.63,2.63,0,0,0,.5-1.12,3.94,3.94,0,0,0-.06-1.48,2.56,2.56,0,0,0-2.84-1.85l-24.33.08-80.27.08a2.32,2.32,0,0,0-2.1,1.34,2.69,2.69,0,0,0-.22,1.31,2.34,2.34,0,0,0,2.55,2.38h35.46l36.09.06,24.33.08,6.61,0,1.72,0,.59,0-.59,0-1.72,0-6.61.05-24.33.08-36.09,0-21.31,0H572.91a2.88,2.88,0,0,1-2.67-1.38,2.82,2.82,0,0,1-.4-1.52,3.21,3.21,0,0,1,.27-1.53,2.83,2.83,0,0,1,2.57-1.64l80.27.07,24.33.09a2.92,2.92,0,0,1,2,.51,2.58,2.58,0,0,1,1,1.5,4.28,4.28,0,0,1,0,1.55,2.66,2.66,0,0,1-.54,1.16,2.58,2.58,0,0,1-1.47.89A1.6,1.6,0,0,1,677.71,112.29Z" style="fill:#455a64"></path><path d="M630.13,166.92a4.34,4.34,0,1,1-4.33-4.33A4.33,4.33,0,0,1,630.13,166.92Z" style="fill:#90CAF9"></path><path d="M584.2,372.5a1.92,1.92,0,0,1,1.34.55h1a2.69,2.69,0,0,0-2.31-1.33h0l-1.05.78Z" style="fill:#263238"></path><path d="M582.15,371.72a2.69,2.69,0,0,0-2.31,1.33h1a1.9,1.9,0,0,1,1.34-.55h.49l1-.78Z" style="fill:#263238"></path><path d="M625.67,262.47c-35.34,26.45-63.94,48-63.87,48s28.77-21.28,64.12-47.72,63.94-48,63.88-48.06h0C689.73,214.66,661,236,625.67,262.47Z" style="fill:#455a64"></path><path d="M625.67,269.54c-35.34,26.45-63.94,48-63.87,48s28.77-21.28,64.12-47.72,63.94-48,63.88-48.06h0C689.73,221.73,661,243.09,625.67,269.54Z" style="fill:#455a64"></path><path d="M625.67,276.61c-35.34,26.45-63.94,48-63.87,48.05s28.77-21.28,64.12-47.72,63.94-48,63.88-48.06h0C689.73,228.8,661,250.16,625.67,276.61Z" style="fill:#455a64"></path><path d="M625.67,283.68c-35.34,26.45-63.94,48-63.87,48.05s28.77-21.28,64.12-47.72,63.94-48,63.88-48.06h0C689.73,235.87,661,257.23,625.67,283.68Z" style="fill:#455a64"></path><path d="M625.67,290.75c-35.34,26.45-63.94,48-63.87,48.05s28.77-21.28,64.12-47.72,63.94-48,63.88-48.06h0C689.73,242.94,661,264.3,625.67,290.75Z" style="fill:#455a64"></path><path d="M625.67,297.82c-35.34,26.45-63.94,48-63.87,48.05s28.77-21.28,64.12-47.72,63.94-48,63.88-48.06h0C689.73,250,661,271.37,625.67,297.82Z" style="fill:#455a64"></path><path d="M625.67,304.89c-35.34,26.45-63.94,48-63.87,48.05s28.77-21.28,64.12-47.72,63.94-48,63.88-48.05h0C689.73,257.08,661,278.44,625.67,304.89Z" style="fill:#455a64"></path><path d="M625.67,312c-35.34,26.45-63.94,48-63.87,48.05s28.77-21.28,64.12-47.72,63.94-48,63.88-48.05h0C689.73,264.15,661,285.51,625.67,312Z" style="fill:#455a64"></path><path d="M625.67,319c-32.23,24.12-58.85,44.13-63.23,47.53l0,.06c4.45-3.21,31.18-23.11,63.46-47.26,35.35-26.45,63.94-48,63.88-48.05h0C689.73,271.22,661,292.58,625.67,319Z" style="fill:#455a64"></path><path d="M625.67,326.1c-27.44,20.53-50.81,38.09-59.86,45l.12.09c9.17-6.77,32.58-24.21,60-44.72,35.35-26.45,63.94-48,63.88-48.05h0C689.73,278.29,661,299.65,625.67,326.1Z" style="fill:#455a64"></path><path d="M625.67,333.17c-22.18,16.6-41.7,31.25-53.15,39.88h.38c11.55-8.57,31-23.07,53-39.55,35.35-26.45,63.94-48,63.88-48.05h0C689.73,285.36,661,306.72,625.67,333.17Z" style="fill:#455a64"></path><path d="M625.67,340.24c-16.08,12-30.76,23.05-42,31.48l-1,.78-.73.55h.5l.74-.55,1.05-.78c11.22-8.35,25.79-19.23,41.72-31.15,35.35-26.45,63.94-48,63.88-48.05h0C689.73,292.43,661,313.79,625.67,340.24Z" style="fill:#455a64"></path><path d="M625.67,347.31l-34.35,25.74h.58c9.86-7.35,21.52-16.06,34-25.41,35.35-26.45,63.94-48,63.88-48.05h0C689.73,299.5,661,320.86,625.67,347.31Z" style="fill:#455a64"></path><path d="M625.67,354.38l-24.92,18.67h.62c7.57-5.64,15.85-11.84,24.55-18.34,35.35-26.45,63.94-48,63.88-48h0C689.73,306.57,661,327.93,625.67,354.38Z" style="fill:#455a64"></path><path d="M625.67,361.45l-15.49,11.6h.66l15.08-11.27c35.35-26.45,63.94-48,63.88-48h0C689.73,313.64,661,335,625.67,361.45Z" style="fill:#455a64"></path><path d="M625.67,368.52l-6,4.53h.67l5.63-4.2c35.35-26.45,63.94-48,63.88-48.05h0C689.73,320.71,661,342.07,625.67,368.52Z" style="fill:#455a64"></path><path d="M629.07,373.05h.67c33.57-25.12,60.12-45.1,60.06-45.18h0C689.73,327.78,662.84,347.79,629.07,373.05Z" style="fill:#455a64"></path><path d="M638.52,373.05h.67c29-21.7,50.67-38,50.61-38.11h0C689.74,334.86,667.73,351.22,638.52,373.05Z" style="fill:#455a64"></path><path d="M648,373.05h.63c24.12-18.08,41.23-31,41.18-31h0C689.74,341.94,672.35,354.86,648,373.05Z" style="fill:#455a64"></path><path d="M657.46,373.05h.59c19-14.28,31.79-23.91,31.75-24h0C689.75,349,676.73,358.67,657.46,373.05Z" style="fill:#455a64"></path><path d="M666.94,373.05h.52c13.7-10.29,22.37-16.85,22.34-16.9h0S680.88,362.67,666.94,373.05Z" style="fill:#455a64"></path><path d="M689.79,363.22h0c-.1,0-5.06,3.68-13.35,9.83h.42C684.93,367,689.74,363.32,689.79,363.22Z" style="fill:#455a64"></path><rect x="574.76" y="123.83" width="6.34" height="4.01" style="fill:#263238"></rect><rect x="583.8" y="123.83" width="10.49" height="4.2" style="fill:#263238"></rect><rect x="597.64" y="123.83" width="10.49" height="4.2" style="fill:#263238"></rect><rect x="665.05" y="123.83" width="10.49" height="4.2" style="fill:#263238"></rect><path d="M617.31,125.93a2.12,2.12,0,1,1-2.12-2.12A2.11,2.11,0,0,1,617.31,125.93Z" style="fill:#263238"></path><path d="M624.54,125.93a2.12,2.12,0,1,1-2.12-2.12A2.12,2.12,0,0,1,624.54,125.93Z" style="fill:#263238"></path><path d="M628.7,172.11s-.19.17-.58.35a6.59,6.59,0,0,1-1.79.52,6.92,6.92,0,0,1-2.78-.16,6.21,6.21,0,0,1-2.92-1.77,5.57,5.57,0,0,1-1.48-3.09,5.31,5.31,0,0,1,.41-2.76,4.5,4.5,0,0,1,1.09-1.52c.34-.3.57-.4.58-.38a7.42,7.42,0,0,0-1.33,2,5.22,5.22,0,0,0-.28,2.56,5.32,5.32,0,0,0,1.39,2.79,5.93,5.93,0,0,0,2.67,1.66,7,7,0,0,0,2.6.26A22.48,22.48,0,0,0,628.7,172.11Z" style="fill:#fff"></path></g><g id="freepik--Plant--inject-6"><g id="freepik--2--inject-6"><path d="M67.57,264.89c-.17-.14-.87-.61-1.11-.78a9.33,9.33,0,0,0-1.29-.81,6.59,6.59,0,0,0,1.17,1.07c.23.18.82.68,1,.81a.16.16,0,0,0,.26,0A.18.18,0,0,0,67.57,264.89Z" style="fill:#e0e0e0"></path><path d="M66.05,281.67c-.22,0-1,.26-1.31.33a11.84,11.84,0,0,0-1.46.46,6.38,6.38,0,0,0,1.58-.19l1.27-.24c.06,0,.17,0,.13-.23A.16.16,0,0,0,66.05,281.67Z" style="fill:#e0e0e0"></path><path d="M71.25,294.65c-.2.08-.94.48-1.21.62a10.29,10.29,0,0,0-1.31.76,7,7,0,0,0,1.49-.53c.27-.12,1-.41,1.19-.51s.15-.09.08-.25A.17.17,0,0,0,71.25,294.65Z" style="fill:#e0e0e0"></path><path d="M76.05,304.24c-.2.08-1,.48-1.21.61a11.75,11.75,0,0,0-1.32.77,6.94,6.94,0,0,0,1.5-.53c.27-.13,1-.41,1.18-.51a.18.18,0,0,0,.09-.26A.18.18,0,0,0,76.05,304.24Z" style="fill:#e0e0e0"></path><path d="M80.13,313c-.21.08-.95.48-1.21.61a10.38,10.38,0,0,0-1.32.77,6.61,6.61,0,0,0,1.49-.54c.27-.12,1-.41,1.19-.51s.16-.08.08-.25A.16.16,0,0,0,80.13,313Z" style="fill:#e0e0e0"></path><path d="M83.39,320.61c-.2.1-.92.55-1.17.7a10.46,10.46,0,0,0-1.26.86,6.8,6.8,0,0,0,1.46-.64c.25-.14,1-.48,1.14-.6s.15-.09.07-.25A.17.17,0,0,0,83.39,320.61Z" style="fill:#e0e0e0"></path><path d="M65.25,272.17c-.22,0-1.06,0-1.35,0a9.35,9.35,0,0,0-1.52.1,6.58,6.58,0,0,0,1.57.18c.3,0,1.07.07,1.29.07s.18,0,.19-.19A.17.17,0,0,0,65.25,272.17Z" style="fill:#e0e0e0"></path><path d="M73.24,261.59c-.08-.21-.46-1-.58-1.22a11,11,0,0,0-.73-1.34,6.37,6.37,0,0,0,.49,1.51c.12.27.38,1,.48,1.2s.08.15.25.08S73.28,261.71,73.24,261.59Z" style="fill:#e0e0e0"></path><path d="M75.78,259.9a29.53,29.53,0,0,1-3.42.41c-.13.13-2.69,2.36-2.86,2.55s-3,1.33-3.1,1.51a30.88,30.88,0,0,0-.81,3.85s-1.74,3.73-1.7,4.5c0,.38,1,4.76,1,4.76s-.09,4.42,0,4.58c.08.33,2.76,5.61,3.08,5.94,0,0,2.18,6.86,2.31,7.21A36.58,36.58,0,0,1,73.33,300c.72,1.57,1.37,4.95,1.51,4.93a29.28,29.28,0,0,1,2.84,4.1c.41,1.25.8,4.56.9,4.71,0,0,1.38,2,1.67,2.49.93,1.54,1,3.44,1.73,5.09a8.34,8.34,0,0,0,2.36,1.89c2-.47,5.75-1.49,7-2C92,321,75.78,259.9,75.78,259.9Z" style="fill:#455a64"></path><path d="M93.79,275c.21-.07,1-.24,1.33-.3a11,11,0,0,1,1.5-.26,6.66,6.66,0,0,1-1.49.55c-.29.08-1,.31-1.24.36-.06,0-.18,0-.22-.14A.16.16,0,0,1,93.79,275Z" style="fill:#e0e0e0"></path><path d="M95.12,288.89c.22,0,1.06,0,1.36,0A11.52,11.52,0,0,1,98,289a6.69,6.69,0,0,1-1.58.21c-.29,0-1.06.09-1.28.09s-.18,0-.19-.19S95,288.9,95.12,288.89Z" style="fill:#e0e0e0"></path><path d="M95.72,299.49c.22,0,1.07,0,1.36,0a11.41,11.41,0,0,1,1.52.08,6.51,6.51,0,0,1-1.57.21c-.29,0-1.07.09-1.29.09-.06,0-.18,0-.19-.19A.17.17,0,0,1,95.72,299.49Z" style="fill:#e0e0e0"></path><path d="M96.46,309c.22,0,1.06,0,1.36,0a10,10,0,0,1,1.52.08,6.48,6.48,0,0,1-1.58.2c-.29,0-1.06.09-1.28.09s-.18,0-.19-.18S96.34,309,96.46,309Z" style="fill:#e0e0e0"></path><path d="M97.29,317.31c.22,0,1.06.07,1.36.09a11,11,0,0,1,1.51.19,6.42,6.42,0,0,1-1.59.09H97.28c-.06,0-.17,0-.17-.2S97.17,317.32,97.29,317.31Z" style="fill:#e0e0e0"></path><path d="M90.46,266.08c.19-.11,1-.47,1.22-.6a11.68,11.68,0,0,1,1.4-.61,6.8,6.8,0,0,1-1.32.89c-.26.14-.92.55-1.12.65s-.16.07-.25-.09A.18.18,0,0,1,90.46,266.08Z" style="fill:#e0e0e0"></path><path d="M85.2,260.06c.09-.2.49-.94.63-1.2a10,10,0,0,1,.78-1.31,6.44,6.44,0,0,1-.55,1.49c-.13.27-.42,1-.52,1.18a.17.17,0,0,1-.26.08C85.19,260.26,85.16,260.18,85.2,260.06Z" style="fill:#e0e0e0"></path><path d="M79.44,259.9c0-.22,0-1.06,0-1.35a11.22,11.22,0,0,1,0-1.53,6.66,6.66,0,0,1,.25,1.57c0,.3.11,1.06.12,1.29,0,.06,0,.17-.18.19S79.46,260,79.44,259.9Z" style="fill:#e0e0e0"></path><path d="M75.91,259.86l3.47-1.27c.15.06,3,1,3.19,1.08s2.76-.06,2.92.06a33,33,0,0,1,2.22,3.12,26.12,26.12,0,0,1,3.15,3.32c.15.35,1.27,4.7,1.27,4.7s1.92,3.93,2,4.1c.08.33.31,6.19.21,6.63,0,0,1.27,7.08,1.32,7.44a41.64,41.64,0,0,0-.29,5.62c.13,1.7,1.07,5,1,5.06a32,32,0,0,0-.38,4.88c.22,1.29,1.32,4.43,1.31,4.61,0,0-.17,2.37-.19,2.94,0,1.77.7,3.52.86,5.3a8.12,8.12,0,0,1-1,2.68,52.56,52.56,0,0,1-6,1.16C90.33,321.32,75.91,259.86,75.91,259.86Z" style="fill:#455a64"></path><g style="opacity:0.30000000000000004"><path d="M75.91,259.86l3.47-1.27c.15.06,3,1,3.19,1.08s2.76-.06,2.92.06a33,33,0,0,1,2.22,3.12,26.12,26.12,0,0,1,3.15,3.32c.15.35,1.27,4.7,1.27,4.7s1.92,3.93,2,4.1c.08.33.31,6.19.21,6.63,0,0,1.27,7.08,1.32,7.44a41.64,41.64,0,0,0-.29,5.62c.13,1.7,1.07,5,1,5.06a32,32,0,0,0-.38,4.88c.22,1.29,1.32,4.43,1.31,4.61,0,0-.17,2.37-.19,2.94,0,1.77.7,3.52.86,5.3a8.12,8.12,0,0,1-1,2.68,52.56,52.56,0,0,1-6,1.16C90.33,321.32,75.91,259.86,75.91,259.86Z"></path></g><path d="M74.77,260.77c-.1-.16-.23-.36-.37-.55a5.22,5.22,0,0,0-.42-.52,1.25,1.25,0,0,0-.26-.2,1,1,0,0,0,.09.31,4.57,4.57,0,0,0,.33.58c.13.2.27.4.38.55s.09.11.22,0A.14.14,0,0,0,74.77,260.77Z" style="fill:#e0e0e0"></path><path d="M77.65,260.07a6.5,6.5,0,0,1,.08-.66,6.19,6.19,0,0,1,.13-.65,1.16,1.16,0,0,1,.14-.29.94.94,0,0,1,.07.31,5.56,5.56,0,0,1,0,.67c0,.24,0,.48-.08.66s0,.14-.18.13A.14.14,0,0,1,77.65,260.07Z" style="fill:#e0e0e0"></path><path d="M86.46,269.65c.16-.14.4-.33.64-.5a5.88,5.88,0,0,1,.68-.44,1.51,1.51,0,0,1,.37-.13,1.42,1.42,0,0,1-.22.33,5.79,5.79,0,0,1-.61.54c-.22.19-.46.36-.64.49a.16.16,0,0,1-.26,0A.17.17,0,0,1,86.46,269.65Z" style="fill:#e0e0e0"></path><path d="M82.19,262.59c.09-.2.22-.47.37-.73a4.63,4.63,0,0,1,.42-.69,1.33,1.33,0,0,1,.27-.28,1.34,1.34,0,0,1,0,.39,6,6,0,0,1-.31.75,7.86,7.86,0,0,1-.37.72.16.16,0,0,1-.25.08A.18.18,0,0,1,82.19,262.59Z" style="fill:#e0e0e0"></path><path d="M89.66,278.65c.21-.07.49-.15.78-.22a7.79,7.79,0,0,1,.8-.15,1.35,1.35,0,0,1,.39,0,1.29,1.29,0,0,1-.33.22,6,6,0,0,1-.76.27c-.28.09-.57.17-.78.22s-.18,0-.23-.15A.17.17,0,0,1,89.66,278.65Z" style="fill:#e0e0e0"></path><path d="M91.29,291.07a7.46,7.46,0,0,1,.81-.1,5.79,5.79,0,0,1,.81,0,1.35,1.35,0,0,1,.38.09,1.25,1.25,0,0,1-.35.16,5.2,5.2,0,0,1-.8.15,6.89,6.89,0,0,1-.81.09c-.06,0-.18,0-.2-.17A.16.16,0,0,1,91.29,291.07Z" style="fill:#e0e0e0"></path><path d="M92.86,302a7.71,7.71,0,0,1,.81,0,5.71,5.71,0,0,1,.81.09,1.39,1.39,0,0,1,.37.14,1.34,1.34,0,0,1-.38.11,5.13,5.13,0,0,1-.81,0c-.3,0-.59,0-.81,0-.07,0-.18,0-.17-.2S92.74,302,92.86,302Z" style="fill:#e0e0e0"></path><path d="M93.7,311.09l.74,0a4.93,4.93,0,0,1,.74.08,1.25,1.25,0,0,1,.34.12,1.08,1.08,0,0,1-.35.11,5.55,5.55,0,0,1-.74,0c-.27,0-.54,0-.74,0s-.17,0-.16-.18S93.59,311.1,93.7,311.09Z" style="fill:#e0e0e0"></path><path d="M94.92,319.65a5.87,5.87,0,0,1,.56.24,4.51,4.51,0,0,1,.54.27,1.19,1.19,0,0,1,.22.2,1.23,1.23,0,0,1-.29,0,5,5,0,0,1-.58-.2,5,5,0,0,1-.55-.24s-.12-.06-.07-.18A.12.12,0,0,1,94.92,319.65Z" style="fill:#e0e0e0"></path><path d="M70.68,273.35c-.22-.05-.5-.11-.8-.15a5,5,0,0,0-.81-.08,1.4,1.4,0,0,0-.38.05,1.28,1.28,0,0,0,.34.19,7.34,7.34,0,0,0,.79.21c.28.06.57.11.79.14s.18,0,.21-.16A.16.16,0,0,0,70.68,273.35Z" style="fill:#e0e0e0"></path><path d="M71.87,265.08c-.17-.14-.41-.31-.65-.48s-.49-.33-.69-.43a1.52,1.52,0,0,0-.37-.11,1.33,1.33,0,0,0,.22.31,5,5,0,0,0,.62.53c.23.18.47.36.66.48s.15.09.25-.05A.17.17,0,0,0,71.87,265.08Z" style="fill:#e0e0e0"></path><path d="M72.22,282.86c-.22,0-.51.09-.79.17a5.49,5.49,0,0,0-.79.22,1.53,1.53,0,0,0-.33.2,1.44,1.44,0,0,0,.39.05,7.19,7.19,0,0,0,.8-.11c.29-.05.58-.11.8-.17.06,0,.17-.05.13-.23A.17.17,0,0,0,72.22,282.86Z" style="fill:#e0e0e0"></path><path d="M76.48,294.81c-.21.06-.49.17-.76.28s-.55.23-.74.34a1.42,1.42,0,0,0-.3.25,1.22,1.22,0,0,0,.39,0,7.09,7.09,0,0,0,.78-.23l.76-.29a.17.17,0,0,0,.1-.25A.17.17,0,0,0,76.48,294.81Z" style="fill:#e0e0e0"></path><path d="M80.11,305.21c-.19.1-.45.24-.7.4a5.38,5.38,0,0,0-.68.44,1.2,1.2,0,0,0-.26.29,1.15,1.15,0,0,0,.38-.06,7.78,7.78,0,0,0,.74-.35c.26-.13.52-.28.7-.39a.17.17,0,0,0,.07-.26A.18.18,0,0,0,80.11,305.21Z" style="fill:#e0e0e0"></path><path d="M83.38,313.82c-.18.09-.42.22-.65.36a5.13,5.13,0,0,0-.62.41,1.16,1.16,0,0,0-.24.26,1,1,0,0,0,.35-.06,5.41,5.41,0,0,0,.67-.31c.24-.13.48-.26.65-.37a.15.15,0,0,0,.06-.23A.15.15,0,0,0,83.38,313.82Z" style="fill:#e0e0e0"></path><path d="M86,321.61l-.39.46a5.21,5.21,0,0,0-.35.5,1.32,1.32,0,0,0-.11.27.85.85,0,0,0,.25-.15,4.55,4.55,0,0,0,.43-.44l.38-.46a.13.13,0,0,0,0-.2A.13.13,0,0,0,86,321.61Z" style="fill:#e0e0e0"></path></g><path d="M75.79,259.87a9.9,9.9,0,0,1-1.57.58,1.61,1.61,0,0,0-.81.89c-.58,1.1-1.4,2-2.08,3a5.3,5.3,0,0,0-.68,3.18,21.8,21.8,0,0,1-.22,3c-.17,1.1-.64,2.5-.37,3.6s.55,2,.78,3a22.83,22.83,0,0,1,.45,2.85,15,15,0,0,0,.73,4.37c.48,1.23,1,2.46,1.51,3.68a19.52,19.52,0,0,1,.89,2.5c.29,1,.67,2.32,1,3.44A21.56,21.56,0,0,0,77,297.9a28.86,28.86,0,0,1,1.4,3c.63,1.69.76,3.6,1.54,5.23a30,30,0,0,1,1.91,3.64c.13.44.28,1.14.43,1.87A21.89,21.89,0,0,0,84,316.78l0,.09a34.16,34.16,0,0,1,1.17,3.8c.1.32,1.37,3.31,1.93,3,1.12-.62,3.59-2.37,3.59-2.37Z" style="fill:#455a64"></path><g style="opacity:0.2"><path d="M75.79,259.87a9.9,9.9,0,0,1-1.57.58,1.61,1.61,0,0,0-.81.89c-.58,1.1-1.4,2-2.08,3a5.3,5.3,0,0,0-.68,3.18,21.8,21.8,0,0,1-.22,3c-.17,1.1-.64,2.5-.37,3.6s.55,2,.78,3a22.83,22.83,0,0,1,.45,2.85,15,15,0,0,0,.73,4.37c.48,1.23,1,2.46,1.51,3.68a19.52,19.52,0,0,1,.89,2.5c.29,1,.67,2.32,1,3.44A21.56,21.56,0,0,0,77,297.9a28.86,28.86,0,0,1,1.4,3c.63,1.69.76,3.6,1.54,5.23a30,30,0,0,1,1.91,3.64c.13.44.28,1.14.43,1.87A21.89,21.89,0,0,0,84,316.78l0,.09a34.16,34.16,0,0,1,1.17,3.8c.1.32,1.37,3.31,1.93,3,1.12-.62,3.59-2.37,3.59-2.37Z"></path></g><path d="M90.73,321.3a4,4,0,0,1-.59.47c-.39.29-1,.71-1.76,1.24l-.62.4-.33.22c-.13.05-.21.18-.46.16s-.49-.42-.68-.67a6.85,6.85,0,0,1-.49-.84,10.52,10.52,0,0,1-.85-2c-.22-.72-.4-1.5-.64-2.28a24.56,24.56,0,0,0-1-2.4,21,21,0,0,1-.92-2.71c-.26-1-.46-1.95-.7-2.95a11,11,0,0,0-1.43-2.82A10.25,10.25,0,0,1,79,304a18.71,18.71,0,0,0-1-3.36c-.52-1.08-1-2.17-1.57-3.29a21.77,21.77,0,0,1-1.32-3.57c-.37-1.21-.68-2.45-1.08-3.61s-.8-2.29-1.28-3.41c-.23-.55-.46-1.1-.68-1.65a9.81,9.81,0,0,1-.58-1.68,22.69,22.69,0,0,1-.41-3.39,41.64,41.64,0,0,0-1.26-6.12,9.35,9.35,0,0,1,.35-2.86,20,20,0,0,0,.3-2.58c0-.82,0-1.62.11-2.39a4.28,4.28,0,0,1,.81-2,27.31,27.31,0,0,0,2-2.77,1.74,1.74,0,0,1,.88-.91l.88-.26a2.32,2.32,0,0,0,.69-.24s-.2.17-.66.33l-.86.3a1.54,1.54,0,0,0-.77.86,26.41,26.41,0,0,1-1.9,2.83,4,4,0,0,0-.74,1.9c-.09.72,0,1.52-.07,2.37a19,19,0,0,1-.28,2.62,9.5,9.5,0,0,0-.32,2.75,39.79,39.79,0,0,1,1.3,6.13,23.68,23.68,0,0,0,.42,3.33,10.44,10.44,0,0,0,.57,1.62l.68,1.65c.47,1.09.89,2.25,1.3,3.44s.71,2.39,1.08,3.62a43.42,43.42,0,0,0,2.87,6.82,18.33,18.33,0,0,1,1,3.42,9.61,9.61,0,0,0,1.21,3.07,11.77,11.77,0,0,1,1.45,2.93c.24,1,.44,2,.68,3a20.89,20.89,0,0,0,.89,2.67,24.8,24.8,0,0,1,1,2.43c.25.81.41,1.59.61,2.3a11.4,11.4,0,0,0,.8,1.94,8,8,0,0,0,.47.82,1.48,1.48,0,0,0,.53.59s.19-.07.3-.13l.34-.2.63-.39,1.8-1.17A6.42,6.42,0,0,1,90.73,321.3Z" style="fill:#263238"></path><path d="M90.08,319.18c-.12,0-3.11-11.95-6.69-26.74S77,265.62,77.14,265.59s3.12,11.94,6.69,26.74S90.2,319.15,90.08,319.18Z" style="fill:#263238"></path><path d="M75.79,259.89c1.07-.05,1.8-.42,2.75.21a36.82,36.82,0,0,0,3.26,1.79,4.61,4.61,0,0,1,2.07,2.49A23.56,23.56,0,0,0,85.45,267a18.6,18.6,0,0,1,1.79,3,17.93,17.93,0,0,1,.85,3,20.13,20.13,0,0,0,.91,2.75A16,16,0,0,1,90.34,280c.12,1.31.24,2.62.33,3.93a21,21,0,0,0,.35,2.63c.2,1,.46,2.38.68,3.52a21,21,0,0,1,.4,4.18,31.12,31.12,0,0,0,.11,3.28c.22,1.87.94,3.71,1,5.6a26.18,26.18,0,0,0,0,3.86c.09.46.27,1.15.47,1.87a21.44,21.44,0,0,1,.8,5.4s0,.07,0,.1a43.83,43.83,0,0,0,.8,4.53c0,.31.13,2.95-.45,2.93a39.42,39.42,0,0,1-4.16-.59Z" style="fill:#455a64"></path><path d="M90.89,321.29a4.61,4.61,0,0,1,.74.09c.48.07,1.19.18,2.11.28.23,0,.47,0,.73.06a1.56,1.56,0,0,0,.37,0s.13-.11.17-.24a6.53,6.53,0,0,0,.17-1.78,32.71,32.71,0,0,0-.78-4.38c-.14-.84-.09-1.71-.2-2.6a23.63,23.63,0,0,0-.45-2.76c-.25-1-.5-1.93-.76-2.94a15.94,15.94,0,0,1,0-3.24,12.05,12.05,0,0,0-.39-3.28A17.7,17.7,0,0,1,92,297c0-1.19-.1-2.44-.11-3.65a21.28,21.28,0,0,0-.46-3.68c-.23-1.24-.52-2.45-.68-3.69-.08-.62-.17-1.23-.25-1.84s-.1-1.2-.16-1.8-.09-1.18-.14-1.76a8.5,8.5,0,0,0-.25-1.69,23.82,23.82,0,0,0-1.14-3.13,21.58,21.58,0,0,1-1-3.09,12.38,12.38,0,0,0-.86-2.84,19,19,0,0,0-1.38-2.43,24.74,24.74,0,0,1-1.42-2.2c-1-3.44-4.2-3.84-5.61-5a2.58,2.58,0,0,0-2-.34,4.65,4.65,0,0,1-.55,0h-.2s.26,0,.74-.12a5.13,5.13,0,0,1,.91-.1,2.13,2.13,0,0,1,1.19.38c.78.5,1.79,1,3,1.6A3.83,3.83,0,0,1,83.27,263c.43.64.74,1.37,1.16,2.07a24.46,24.46,0,0,0,1.43,2.17,19.94,19.94,0,0,1,1.43,2.45,13,13,0,0,1,.91,2.92,20.75,20.75,0,0,0,1,3,24.47,24.47,0,0,1,1.17,3.19,9.36,9.36,0,0,1,.26,1.75c.05.58.1,1.17.16,1.77a53.16,53.16,0,0,0,1.08,7.28,21.73,21.73,0,0,1,.47,3.75c0,1.25.07,2.43.11,3.62a17.21,17.21,0,0,0,.59,3.43,12.66,12.66,0,0,1,.39,3.39,15.09,15.09,0,0,0,0,3.15c.25,1,.49,2,.72,2.93a22.29,22.29,0,0,1,.43,2.81c.11.91,0,1.79.17,2.59a31.08,31.08,0,0,1,.72,4.42,6.17,6.17,0,0,1-.22,1.86c-.06.13-.12.31-.34.37a2.75,2.75,0,0,1-.42,0c-.26,0-.5-.06-.73-.09-.92-.13-1.63-.27-2.11-.36A4.36,4.36,0,0,1,90.89,321.29Z" style="fill:#263238"></path><g id="freepik--2--inject-6"><path d="M111.66,228c-.17-.29-.93-1.33-1.19-1.7a16.35,16.35,0,0,0-1.45-1.83,10.42,10.42,0,0,0,1.13,2.15c.25.38.84,1.41,1,1.68,0,.09.16.22.39.07A.25.25,0,0,0,111.66,228Z" style="fill:#e0e0e0"></path><path d="M100.83,251.44c-.33-.06-1.62-.15-2.07-.19a17.37,17.37,0,0,0-2.33-.09,9.8,9.8,0,0,0,2.37.53c.45.07,1.62.28,2,.31.1,0,.27,0,.31-.26S101,251.48,100.83,251.44Z" style="fill:#e0e0e0"></path><path d="M101.65,272.85c-.34,0-1.62.21-2.06.26a16.56,16.56,0,0,0-2.3.43,10.05,10.05,0,0,0,2.43,0c.45,0,1.64-.08,2-.13.1,0,.27,0,.24-.32S101.83,272.85,101.65,272.85Z" style="fill:#e0e0e0"></path><path d="M103.63,289.15c-.34,0-1.62.21-2.06.27a15.41,15.41,0,0,0-2.3.42,10.05,10.05,0,0,0,2.43,0c.45,0,1.64-.08,2-.12.11,0,.28-.05.25-.32A.26.26,0,0,0,103.63,289.15Z" style="fill:#e0e0e0"></path><path d="M105,303.81c-.34,0-1.61.21-2.06.27a16.34,16.34,0,0,0-2.29.42,10,10,0,0,0,2.43,0c.45,0,1.63-.08,2-.12a.26.26,0,0,0,.25-.32A.27.27,0,0,0,105,303.81Z" style="fill:#e0e0e0"></path><path d="M105.77,316.55c-.34,0-1.59.31-2,.41a15.62,15.62,0,0,0-2.25.58,10.12,10.12,0,0,0,2.42-.17c.45-.07,1.63-.2,2-.27.1,0,.27-.06.22-.33A.25.25,0,0,0,105.77,316.55Z" style="fill:#e0e0e0"></path><path d="M104.57,237.33c-.31-.14-1.53-.53-2-.68a16.46,16.46,0,0,0-2.25-.63,10.1,10.1,0,0,0,2.18,1.07c.42.17,1.51.66,1.83.77.09,0,.26.08.36-.18A.25.25,0,0,0,104.57,237.33Z" style="fill:#e0e0e0"></path><path d="M121.54,226.19c0-.34-.16-1.62-.2-2.07a16.92,16.92,0,0,0-.37-2.31,10.6,10.6,0,0,0-.06,2.43c0,.46,0,1.64.07,2,0,.1,0,.27.31.26A.26.26,0,0,0,121.54,226.19Z" style="fill:#e0e0e0"></path><path d="M126.08,225.05a45.58,45.58,0,0,1-5.14-1.16c-.25.11-5.1,2-5.45,2.2s-5,.37-5.24.58c-.61.49-3.15,5.14-3.15,5.14s-4.43,4.49-4.78,5.6c-.18.57-1,7.38-1,7.38s-2.4,6.33-2.43,6.59c-.05.52,1.1,9.51,1.38,10.16,0,0-.39,11-.38,11.58a57.43,57.43,0,0,1,2,8.52c.23,2.63-.58,7.83-.37,7.89,0,0,2,5.71,2,7.37,0,2-1.18,7-1.12,7.26,0,0,1,3.6,1.13,4.45.54,2.7-.31,5.49-.13,8.24,0,.4,2,3.89,2.43,3.93,3.12.35,9.06.82,11.19.74C118,321.48,126.08,225.05,126.08,225.05Z" style="fill:#455a64"></path><path d="M144.3,256.07c.34,0,1.62.19,2.07.25a15.47,15.47,0,0,1,2.29.41,10.26,10.26,0,0,1-2.43,0c-.45,0-1.64-.07-2-.11-.1,0-.27,0-.25-.31A.26.26,0,0,1,144.3,256.07Z" style="fill:#e0e0e0"></path><path d="M139,276.83c.33.09,1.54.54,2,.7a16.09,16.09,0,0,1,2.15.89,10.18,10.18,0,0,1-2.37-.51c-.43-.13-1.58-.42-1.9-.54-.1,0-.26-.1-.18-.36A.26.26,0,0,1,139,276.83Z" style="fill:#e0e0e0"></path><path d="M134.45,292.44c.33.08,1.54.54,2,.69a14.89,14.89,0,0,1,2.16.9,10,10,0,0,1-2.38-.52c-.43-.13-1.58-.42-1.9-.53-.1,0-.26-.1-.18-.37A.26.26,0,0,1,134.45,292.44Z" style="fill:#e0e0e0"></path><path d="M130.61,306.54c.33.08,1.53.54,2,.69a17.3,17.3,0,0,1,2.15.9,10.18,10.18,0,0,1-2.37-.51c-.43-.13-1.58-.43-1.9-.54-.1,0-.26-.1-.18-.36A.25.25,0,0,1,130.61,306.54Z" style="fill:#e0e0e0"></path><path d="M127.53,319c.32.11,1.49.65,1.91.83a15.59,15.59,0,0,1,2.08,1.05,10.13,10.13,0,0,1-2.33-.68c-.42-.16-1.55-.54-1.86-.67a.26.26,0,0,1-.15-.38A.26.26,0,0,1,127.53,319Z" style="fill:#e0e0e0"></path><path d="M144.08,241.54c.33-.07,1.61-.2,2.06-.25a17.75,17.75,0,0,1,2.33-.15,10.39,10.39,0,0,1-2.36.6c-.44.07-1.6.32-1.94.36-.1,0-.27,0-.32-.25A.26.26,0,0,1,144.08,241.54Z" style="fill:#e0e0e0"></path><path d="M139.59,230.15c.22-.26,1.19-1.11,1.52-1.42a16,16,0,0,1,1.8-1.48,9.64,9.64,0,0,1-1.56,1.86c-.32.32-1.11,1.2-1.36,1.43a.28.28,0,1,1-.4-.39Z" style="fill:#e0e0e0"></path><path d="M131.36,227c.08-.33.5-1.55.64-2a16.59,16.59,0,0,1,.84-2.18,10.09,10.09,0,0,1-.45,2.39c-.12.44-.38,1.59-.48,1.92a.26.26,0,0,1-.36.18A.25.25,0,0,1,131.36,227Z" style="fill:#e0e0e0"></path><path d="M126.29,225.07,132,225c.18.17,3.79,3,4,3.21s4,1.34,4.18,1.59a49.32,49.32,0,0,1,1.6,5.64s2.76,5.26,2.83,6.42c0,.59-.59,7.43-.59,7.43s.74,6.66.71,6.92c-.05.52-2.74,9.1-3.1,9.67,0,0-1.82,10.87-1.93,11.42a63.15,63.15,0,0,0-3.31,8c-.7,2.52-1,7.78-1.23,7.79,0,0-2.73,5.21-3.06,6.84-.35,2-.38,7.07-.48,7.32,0,0-1.48,3.34-1.79,4.15-1,2.54-.81,5.43-1.5,8.09,0,.4-2.41,3.42-2.75,3.38a79.21,79.21,0,0,1-9.33-1.45C115.42,321.15,126.29,225.07,126.29,225.07Z" style="fill:#455a64"></path><g style="opacity:0.30000000000000004"><path d="M126.29,225.07,132,225c.18.17,3.79,3,4,3.21s4,1.34,4.18,1.59a49.32,49.32,0,0,1,1.6,5.64s2.76,5.26,2.83,6.42c0,.59-.59,7.43-.59,7.43s.74,6.66.71,6.92c-.05.52-2.74,9.1-3.1,9.67,0,0-1.82,10.87-1.93,11.42a63.15,63.15,0,0,0-3.31,8c-.7,2.52-1,7.78-1.23,7.79,0,0-2.73,5.21-3.06,6.84-.35,2-.38,7.07-.48,7.32,0,0-1.48,3.34-1.79,4.15-1,2.54-.81,5.43-1.5,8.09,0,.4-2.41,3.42-2.75,3.38a79.21,79.21,0,0,1-9.33-1.45C115.42,321.15,126.29,225.07,126.29,225.07Z"></path></g><path d="M124.18,225.79c-.06-.28-.15-.64-.26-1a8.37,8.37,0,0,0-.33-1,2.28,2.28,0,0,0-.27-.41,1.56,1.56,0,0,0,0,.49,7.63,7.63,0,0,0,.19,1c.08.36.18.72.26,1,0,.08.07.22.29.16A.21.21,0,0,0,124.18,225.79Z" style="fill:#e0e0e0"></path><path d="M128.69,226.27a9.76,9.76,0,0,1,.46-.91,6.18,6.18,0,0,1,.53-.88,1.67,1.67,0,0,1,.35-.34,1.6,1.6,0,0,1-.07.48,7,7,0,0,1-.4.95c-.15.33-.32.66-.46.91a.21.21,0,0,1-.32.09A.21.21,0,0,1,128.69,226.27Z" style="fill:#e0e0e0"></path><path d="M136.46,244.62c.31-.12.74-.26,1.18-.39a9.06,9.06,0,0,1,1.21-.29,2.17,2.17,0,0,1,.6,0,2.24,2.24,0,0,1-.48.36,11.54,11.54,0,0,1-1.16.47c-.42.15-.85.29-1.18.38a.28.28,0,0,1-.17-.54Z" style="fill:#e0e0e0"></path><path d="M134,232.24c.23-.25.56-.56.9-.86a7.64,7.64,0,0,1,1-.79,1.91,1.91,0,0,1,.54-.25,2.14,2.14,0,0,1-.28.53,9.3,9.3,0,0,1-.83.92c-.32.32-.65.63-.9.86a.26.26,0,0,1-.41,0A.25.25,0,0,1,134,232.24Z" style="fill:#e0e0e0"></path><path d="M136.44,259.25c.34,0,.79,0,1.24.09a10.72,10.72,0,0,1,1.23.19,2.2,2.2,0,0,1,.55.23,2.13,2.13,0,0,1-.58.15,8.65,8.65,0,0,1-1.25,0c-.45,0-.9-.06-1.23-.1-.11,0-.28,0-.25-.31A.26.26,0,0,1,136.44,259.25Z" style="fill:#e0e0e0"></path><path d="M132.4,278c.33.06.77.16,1.21.28a9.88,9.88,0,0,1,1.19.38,2.13,2.13,0,0,1,.5.31,1.78,1.78,0,0,1-.59.06,9.29,9.29,0,0,1-1.23-.19c-.45-.09-.89-.2-1.21-.29-.1,0-.26-.08-.2-.35A.26.26,0,0,1,132.4,278Z" style="fill:#e0e0e0"></path><path d="M129,294.61c.32.11.74.27,1.16.45a9.86,9.86,0,0,1,1.12.54,2.09,2.09,0,0,1,.45.39,1.8,1.8,0,0,1-.59,0,8.3,8.3,0,0,1-1.19-.37c-.43-.15-.85-.32-1.16-.46-.09,0-.24-.12-.14-.38A.25.25,0,0,1,129,294.61Z" style="fill:#e0e0e0"></path><path d="M125.55,308.13c.3.1.68.25,1.06.42a9.07,9.07,0,0,1,1,.5,2,2,0,0,1,.41.35,1.86,1.86,0,0,1-.54,0,7,7,0,0,1-1.09-.34,10.65,10.65,0,0,1-1.06-.42.23.23,0,0,1-.13-.34A.23.23,0,0,1,125.55,308.13Z" style="fill:#e0e0e0"></path><path d="M122.91,321.1c.19.17.44.39.68.63a7.59,7.59,0,0,1,.64.68,1.64,1.64,0,0,1,.21.39,1.38,1.38,0,0,1-.41-.18,7.41,7.41,0,0,1-.73-.57c-.25-.22-.5-.46-.68-.63a.2.2,0,0,1,0-.31A.2.2,0,0,1,122.91,321.1Z" style="fill:#e0e0e0"></path><path d="M111.8,241.83c-.29-.18-.68-.41-1.08-.63a10.14,10.14,0,0,0-1.12-.54,2.07,2.07,0,0,0-.59-.11,2.38,2.38,0,0,0,.4.45,9.11,9.11,0,0,0,1,.7c.38.24.77.46,1.07.62.09.05.25.12.39-.12A.26.26,0,0,0,111.8,241.83Z" style="fill:#e0e0e0"></path><path d="M117.78,230.51c-.18-.28-.43-.66-.7-1a9.09,9.09,0,0,0-.77-1,2.34,2.34,0,0,0-.48-.36,2,2,0,0,0,.16.58,9.26,9.26,0,0,0,.62,1.08c.24.38.5.75.7,1a.25.25,0,0,0,.4.06A.27.27,0,0,0,117.78,230.51Z" style="fill:#e0e0e0"></path><path d="M109.12,256.34c-.34-.06-.78-.13-1.23-.17a9.75,9.75,0,0,0-1.25-.08,2,2,0,0,0-.58.12,2,2,0,0,0,.53.26,8.06,8.06,0,0,0,1.22.26c.44.08.89.14,1.23.17.1,0,.27,0,.31-.26A.26.26,0,0,0,109.12,256.34Z" style="fill:#e0e0e0"></path><path d="M109.1,275.76c-.34,0-.79,0-1.24,0a10.23,10.23,0,0,0-1.24.12,2,2,0,0,0-.56.2,1.8,1.8,0,0,0,.57.18,9.13,9.13,0,0,0,1.24.07c.45,0,.9,0,1.24,0,.11,0,.28,0,.27-.31S109.28,275.77,109.1,275.76Z" style="fill:#e0e0e0"></path><path d="M109,292.65c-.34,0-.79.11-1.23.2a10.69,10.69,0,0,0-1.21.3,2.07,2.07,0,0,0-.52.28,2,2,0,0,0,.58.1,10,10,0,0,0,1.24-.11c.45-.06.9-.14,1.23-.21.1,0,.27-.07.22-.34S109.17,292.64,109,292.65Z" style="fill:#e0e0e0"></path><path d="M109.26,306.75c-.31,0-.72.1-1.12.18a7.54,7.54,0,0,0-1.11.27,1.76,1.76,0,0,0-.48.26,1.91,1.91,0,0,0,.54.09,8.39,8.39,0,0,0,1.13-.1l1.12-.19a.26.26,0,0,0-.08-.51Z" style="fill:#e0e0e0"></path><path d="M109,319.33c-.22.12-.52.29-.8.47a8.4,8.4,0,0,0-.77.53,2,2,0,0,0-.29.34,1.39,1.39,0,0,0,.44-.09,5.75,5.75,0,0,0,.83-.41c.3-.16.59-.33.8-.47s.17-.12.07-.3A.2.2,0,0,0,109,319.33Z" style="fill:#e0e0e0"></path></g><path d="M126.12,225a14.35,14.35,0,0,1-2.57,0,2.51,2.51,0,0,0-1.63.87c-1.41,1.29-3,2.14-4.55,3.3s-2,2.5-2.62,4.24a32.79,32.79,0,0,1-1.89,4.24c-.8,1.51-2.21,3.27-2.37,5-.16,1.55-.24,3.14-.43,4.71a32.06,32.06,0,0,1-.82,4.35,23.12,23.12,0,0,0-1.19,6.68c.06,2,.16,4.06.28,6.08a32.51,32.51,0,0,1,0,4.07c-.1,1.58-.23,3.69-.34,5.48a32.07,32.07,0,0,0,.24,6.42,47.31,47.31,0,0,1,.47,5c0,2.76-.76,5.59-.47,8.34.22,2.06,1,4.11.88,6.23,0,.7-.18,1.8-.34,2.93a33.42,33.42,0,0,0-.14,8.36c0,.06,0,.11,0,.15a54.4,54.4,0,0,1-.28,6.09c0,.5.28,5.48,1.24,5.32,1.94-.33,6.4-1.57,6.4-1.57Z" style="fill:#455a64"></path><g style="opacity:0.2"><path d="M126.12,225a14.35,14.35,0,0,1-2.57,0,2.51,2.51,0,0,0-1.63.87c-1.41,1.29-3,2.14-4.55,3.3s-2,2.5-2.62,4.24a32.79,32.79,0,0,1-1.89,4.24c-.8,1.51-2.21,3.27-2.37,5-.16,1.55-.24,3.14-.43,4.71a32.06,32.06,0,0,1-.82,4.35,23.12,23.12,0,0,0-1.19,6.68c.06,2,.16,4.06.28,6.08a32.51,32.51,0,0,1,0,4.07c-.1,1.58-.23,3.69-.34,5.48a32.07,32.07,0,0,0,.24,6.42,47.31,47.31,0,0,1,.47,5c0,2.76-.76,5.59-.47,8.34.22,2.06,1,4.11.88,6.23,0,.7-.18,1.8-.34,2.93a33.42,33.42,0,0,0-.14,8.36c0,.06,0,.11,0,.15a54.4,54.4,0,0,1-.28,6.09c0,.5.28,5.48,1.24,5.32,1.94-.33,6.4-1.57,6.4-1.57Z"></path></g><path d="M116,321.33l-.27.1-.82.24c-.73.21-1.8.51-3.19.86l-1.1.26-.6.13-.31.06a.44.44,0,0,1-.38-.05,2.45,2.45,0,0,1-.62-1.27c-.11-.47-.19-1-.26-1.46a17.92,17.92,0,0,1-.21-3.27c.06-1.16.22-2.36.27-3.63a37.61,37.61,0,0,0-.22-4,33.8,33.8,0,0,1,.06-4.37c.06-.75.16-1.52.25-2.29s.18-1.54.27-2.33a17.05,17.05,0,0,0-.6-4.83,15.55,15.55,0,0,1-.32-2.58,21.47,21.47,0,0,1,.13-2.65,32.92,32.92,0,0,0,.37-5.36c-.08-1.83-.38-3.66-.6-5.56a34.1,34.1,0,0,1-.07-5.81q.18-2.91.35-5.76c.09-1.88-.07-3.74-.14-5.59,0-.91-.08-1.83-.12-2.73a16.36,16.36,0,0,1,0-2.71,35,35,0,0,1,1.15-5.09,29.53,29.53,0,0,0,.86-4.83c.17-1.6.25-3.12.47-4.65a14.68,14.68,0,0,1,2-3.92,29.55,29.55,0,0,0,1.76-3.58c.5-1.16.84-2.34,1.38-3.39a6.44,6.44,0,0,1,2.18-2.45,42.38,42.38,0,0,0,4.23-3,3.69,3.69,0,0,1,.82-.62,2.26,2.26,0,0,1,.88-.23c.56,0,1,.05,1.4.07.75,0,1.14,0,1.13,0s-.39.13-1.14.12c-.37,0-.84,0-1.38,0a2.13,2.13,0,0,0-.82.24,3.81,3.81,0,0,0-.77.61,42.35,42.35,0,0,1-4.2,3.09,6.25,6.25,0,0,0-2.08,2.37c-.51,1-.84,2.2-1.33,3.38a30.18,30.18,0,0,1-1.76,3.64,14.19,14.19,0,0,0-1.89,3.82c-.37,2.93-.39,6.22-1.3,9.51a34.62,34.62,0,0,0-1.12,5,15.61,15.61,0,0,0,0,2.65c0,.9.08,1.81.13,2.72.07,1.83.23,3.71.14,5.63s-.23,3.82-.34,5.77a33.17,33.17,0,0,0,.06,5.73c.22,1.87.51,3.74.6,5.59a34.36,34.36,0,0,1-.39,5.43,15.25,15.25,0,0,0,.17,5.1,17.33,17.33,0,0,1,.59,4.93c-.1.8-.19,1.59-.28,2.36s-.21,1.52-.27,2.27a35,35,0,0,0-.08,4.32,39.69,39.69,0,0,1,.19,4c-.07,1.29-.23,2.5-.3,3.64a16.8,16.8,0,0,0,.17,3.22c.06.5.14,1,.24,1.43a2.35,2.35,0,0,0,.51,1.15c.09.09.34,0,.53,0l.6-.12,1.1-.24,3.2-.78.83-.2Z" style="fill:#263238"></path><path d="M116.17,317.93c-.12,0,1.78-18.82,4.25-42s4.57-42,4.69-42-1.77,18.82-4.24,42S116.3,317.94,116.17,317.93Z" style="fill:#263238"></path><path d="M126.11,225.05c1.56.47,2.8.31,3.85,1.71a54.65,54.65,0,0,0,3.78,4.27c1.36,1.46,1.43,2.71,1.7,4.66a33.3,33.3,0,0,0,1,4.54,29.27,29.27,0,0,1,1,5.33,26.32,26.32,0,0,1-.31,4.76,34.3,34.3,0,0,0-.11,4.42,24.31,24.31,0,0,1-.25,6.82c-.5,1.95-1,3.91-1.55,5.85a31.5,31.5,0,0,0-.85,4c-.24,1.57-.55,3.67-.82,5.43a32.54,32.54,0,0,1-1.59,6.23,48.26,48.26,0,0,0-1.52,4.79c-.65,2.81-.56,5.84-1.47,8.58-.62,1.86-1.66,3.62-2,5.58-.11.69-.2,1.79-.28,2.93a33.32,33.32,0,0,1-1.63,8.2,1.55,1.55,0,0,1,0,.15c-.71,2.25-.72,4.64-1.17,6.94-.1.47-1.34,4.33-2.17,4a61.66,61.66,0,0,1-5.7-3Z" style="fill:#455a64"></path><path d="M116.24,321.39s.09,0,.26.12l.75.41c.66.35,1.63.89,2.9,1.51.32.16.65.32,1,.48.18.07.39.17.54.22s.3-.13.42-.28a9.36,9.36,0,0,0,1.19-2.5,12.76,12.76,0,0,0,.65-3.12c.14-1.14.25-2.35.5-3.61s.75-2.5,1.06-3.85a35.52,35.52,0,0,0,.78-4.22c.14-1.49.28-3,.43-4.62a24.42,24.42,0,0,1,1.65-4.66c1.33-3.08,1-6.71,2-10.3.48-1.77,1.17-3.52,1.76-5.29a32.85,32.85,0,0,0,1.23-5.57q.45-2.88.88-5.68c.32-1.88.88-3.67,1.33-5.43.23-.89.46-1.76.69-2.63a13.17,13.17,0,0,0,.52-2.57,36.55,36.55,0,0,0,0-5.13,33.36,33.36,0,0,1,.18-4.93,19.28,19.28,0,0,0,.23-4.57,29.1,29.1,0,0,0-.76-4.23,38.68,38.68,0,0,1-.91-3.89c-.24-1.26-.3-2.48-.57-3.57a5.52,5.52,0,0,0-1.58-2.69,47.14,47.14,0,0,1-3.41-3.91,4,4,0,0,0-2.73-1.52c-.37-.08-.65-.15-.83-.21a1.08,1.08,0,0,1-.27-.1,1,1,0,0,1,.28.06l.83.16a9.57,9.57,0,0,1,1.36.34,3.28,3.28,0,0,1,1.5,1.16,48.62,48.62,0,0,0,3.45,3.85,5.76,5.76,0,0,1,1.68,2.79c.29,1.13.36,2.34.6,3.58a39.08,39.08,0,0,0,.93,3.86,28.22,28.22,0,0,1,.8,4.28,19.74,19.74,0,0,1-.2,4.65,32.63,32.63,0,0,0-.16,4.87,37.32,37.32,0,0,1,0,5.19,14,14,0,0,1-.52,2.64l-.69,2.63c-.45,1.78-1,3.55-1.32,5.4s-.58,3.76-.87,5.67a35.06,35.06,0,0,1-1.25,5.63c-.6,1.81-1.28,3.53-1.76,5.28-1,3.47-.67,7.15-2,10.34a24.46,24.46,0,0,0-1.65,4.57q-.23,2.37-.45,4.59a35.93,35.93,0,0,1-.81,4.27c-.33,1.36-.85,2.6-1.09,3.83-.53,2.46-.46,4.82-1.23,6.75a9.93,9.93,0,0,1-1.25,2.55c-.15.15-.32.37-.62.34s-.4-.16-.59-.24l-1-.5c-1.26-.65-2.22-1.21-2.86-1.59l-.73-.45Z" style="fill:#263238"></path><polygon points="125.77 376.85 85.54 376.85 69.91 316.65 140.18 316.65 125.77 376.85" style="fill:#90CAF9"></polygon><g style="opacity:0.30000000000000004"><polygon points="69.91 316.65 85.54 376.85 106.57 376.85 104.41 316.79 69.91 316.65"></polygon></g><path d="M107,376.66c-.13,0-.8-13.39-1.5-29.92s-1.17-29.95-1-29.95.79,13.39,1.49,29.93S107.07,376.66,107,376.66Z" style="fill:#263238"></path></g><g id="freepik--Mouse--inject-6"><path d="M586.27,423.86a7.86,7.86,0,0,1-.66-8.46c2.07-3.73,6.9-8.25,18.19-9.69,20.32-2.59,28.09-.2,42.84,10.16s31.88,32.68,3.58,37.46C622.94,457.94,606,450.32,586.27,423.86Z" style="fill:#455a64"></path><g style="opacity:0.30000000000000004"><path d="M584.79,417.72a51.63,51.63,0,0,1,21.14,11.95c9.77,9.25,16.42,23.11,16.42,23.11s-17.85,1.07-28.86-9.06S584.79,417.72,584.79,417.72Z"></path></g><path d="M602.24,406.24c3.42.17,6.5,2,9.65,3.33a3.41,3.41,0,0,0,2.48.35c1.16-.44,1.3-1.31.76-2.43a6.79,6.79,0,0,0-3.41-2.62c-4.11-1.54-8.21-1.73-10.63-.12-.48.32-1.56,1.34-1.46,1.91Z" style="fill:#263238"></path></g><g id="freepik--Keyboard--inject-6"><path d="M553.3,458.06H201.91a2.24,2.24,0,0,1-2.24-2.21l-.06-4.4L556,450.8v4.54A2.72,2.72,0,0,1,553.3,458.06Z" style="fill:#263238"></path><g style="opacity:0.30000000000000004"><path d="M553.3,458.06H201.91a2.24,2.24,0,0,1-2.24-2.21l-.06-4.4L556,450.8v4.54A2.72,2.72,0,0,1,553.3,458.06Z"></path></g><path d="M537.89,398.81H215.15a2.73,2.73,0,0,0-2.64,2.05L199.7,450.8a2.73,2.73,0,0,0,2.65,3.41L553.29,454a2.74,2.74,0,0,0,2.61-3.55l-15.4-49.71A2.75,2.75,0,0,0,537.89,398.81Z" style="fill:#263238"></path><path d="M447.52,409.5c.16,1.77.32,3.54.47,5.3h14.35l0-.35c-.16-1.76-.31-3.51-.47-5.27H447.49Z" style="fill:#455a64"></path><path d="M370.36,424H347.11l.2,6.67h24.08Z" style="fill:#455a64"></path><path d="M434.83,416.33H412.1l.7,6.09h22.54Z" style="fill:#455a64"></path><path d="M396.46,424H371.9l1,6.67h24.79Z" style="fill:#455a64"></path><path d="M458.61,416.33H436.36l.52,6.09h22.5Z" style="fill:#455a64"></path><path d="M531.05,416.33H508.12l.63,6.09H532Z" style="fill:#455a64"></path><path d="M495.16,409.5l.48,5.3H510l0-.35c-.15-1.76-.31-3.51-.47-5.27H495.14Z" style="fill:#455a64"></path><path d="M503.48,424H491.59a.39.39,0,0,0-.39.45l.95,5.89a.4.4,0,0,0,.39.33h11.9a.39.39,0,0,0,.38-.46l-.95-5.88A.39.39,0,0,0,503.48,424Z" style="fill:#455a64"></path><path d="M506.59,416.33H484.31l.63,6.09h22.28Z" style="fill:#455a64"></path><path d="M540.35,416.33h-7.76l.93,6.09h8.61Z" style="fill:#455a64"></path><path d="M482.78,416.33H460.14l.78,6.09h22.49Z" style="fill:#455a64"></path><path d="M387,416.33H365l.56,6.09h22.16Z" style="fill:#455a64"></path><path d="M363.5,416.33H342.23l-.35,6.09h22.19Z" style="fill:#455a64"></path><path d="M345.58,424h-21.2l-.32,6.67h21.71Z" style="fill:#455a64"></path><path d="M479.28,409.5c.16,1.77.32,3.54.47,5.3H494.1l0-.35c-.16-1.76-.31-3.51-.47-5.27H479.25Z" style="fill:#455a64"></path><path d="M410.56,416.33H388.49l.8,6.09h22Z" style="fill:#455a64"></path><path d="M323.74,416.33h-5.51l-.77,6.09h22.89l.34-6.09Z" style="fill:#455a64"></path><path d="M275.43,424l-1.09,6.67h24l.91-6.67Z" style="fill:#455a64"></path><path d="M295,416.33a.81.81,0,0,1,0,.22c0,.27-.09.54-.13.8-.28,1.69-.56,3.38-.83,5.07h21.89l.77-6.09Z" style="fill:#455a64"></path><path d="M300.65,424l-.91,6.67H322.4l.32-6.67Z" style="fill:#455a64"></path><path d="M271.44,416.33l-.55,6.09h21.6l1-6.09Z" style="fill:#455a64"></path><path d="M408.82,432.16H380.76a.82.82,0,0,0-.82.91l.69,6.4a.82.82,0,0,0,.82.73h28.06a.82.82,0,0,0,.82-.9l-.69-6.41A.83.83,0,0,0,408.82,432.16Z" style="fill:#455a64"></path><path d="M501.76,402.17c.09,1.82.19,3.65.29,5.48h20.79v-.14c-.11-2-.22-4.07-.32-6.1l-20.8,0C501.73,401.65,501.74,401.91,501.76,402.17Z" style="fill:#455a64"></path><path d="M239.46,402.62l-.87,5h23.46l0-.16.51-6.35-23.09,0a.9.9,0,0,1,.12.63Z" style="fill:#455a64"></path><path d="M542.57,424H519.73l1.08,6.67h23.71Z" style="fill:#455a64"></path><path d="M514.89,432.16H500.61a.62.62,0,0,0-.61.69l.81,6.81a.62.62,0,0,0,.62.54H515.7a.62.62,0,0,0,.62-.69l-.81-6.8A.63.63,0,0,0,514.89,432.16Z" style="fill:#455a64"></path><path d="M498,432.16H478.54a.61.61,0,0,0-.61.69l.81,6.81a.62.62,0,0,0,.62.54h19.45a.61.61,0,0,0,.61-.69l-.81-6.8A.62.62,0,0,0,498,432.16Z" style="fill:#455a64"></path><path d="M482.9,441.74H465.14a.49.49,0,0,0-.49.52l.52,6.84a.49.49,0,0,0,.49.45H483.5A.49.49,0,0,0,484,449l-.61-6.84A.48.48,0,0,0,482.9,441.74Z" style="fill:#455a64"></path><path d="M531,441.74H511.49a.89.89,0,0,0-.89,1l.61,6a.89.89,0,0,0,.89.81h19.36a.9.9,0,0,0,.89-1l-.47-6A.9.9,0,0,0,531,441.74Z" style="fill:#455a64"></path><path d="M444.53,424h-20a.62.62,0,0,0-.61.72l.88,5.43a.62.62,0,0,0,.61.52h20a.62.62,0,0,0,.62-.72l-.89-5.43A.61.61,0,0,0,444.53,424Z" style="fill:#455a64"></path><path d="M426.71,442.67a1.07,1.07,0,0,0-1-.93H309.53a1,1,0,0,0-1,1.11l.31,5.7a1.07,1.07,0,0,0,1.06,1H426.34a1.06,1.06,0,0,0,1.05-1.18Z" style="fill:#455a64"></path><path d="M454.43,432.16H434.05a.62.62,0,0,0-.61.69l.73,6.8a.62.62,0,0,0,.62.55h20.45a.61.61,0,0,0,.61-.69l-.81-6.8A.61.61,0,0,0,454.43,432.16Z" style="fill:#455a64"></path><path d="M269.85,416.33H247.94a.63.63,0,0,0-.61.52c-.26,1.54-.56,3.28-.83,4.84a.61.61,0,0,0,.61.73h22.08Z" style="fill:#455a64"></path><path d="M301.05,409.5l-.48,5.3h14.74l0-.35.48-5.27H301.08Z" style="fill:#455a64"></path><path d="M284.78,409.5l-.48,5.3H299l0-.35.48-5.27H284.81Z" style="fill:#455a64"></path><path d="M261.61,414.8h21.16l0-.35.47-5.27H259.91l0,.22-.48,5.4Z" style="fill:#455a64"></path><path d="M349.87,409.5l-.48,5.3h15.54l0-.35-.21-5.27H349.9Z" style="fill:#455a64"></path><path d="M366.25,409.5l.21,5.3h15.27l0-.34c-.23-1.76-.45-3.52-.67-5.28H366.23Z" style="fill:#455a64"></path><path d="M286.92,433.26l-.92,5.4a1.32,1.32,0,0,0,1.3,1.54h19.56a1.32,1.32,0,0,0,1.32-1.26l.2-5.41a1.32,1.32,0,0,0-1.32-1.37H288.22A1.32,1.32,0,0,0,286.92,433.26Z" style="fill:#455a64"></path><path d="M398.89,409.3l1,5.5h14.18c0-.11,0-.23,0-.35-.17-1.76-.34-3.51-.5-5.27H398.86Z" style="fill:#455a64"></path><path d="M259.3,432.84l-1.08,6.41a.81.81,0,0,0,.81.95H283.5a.82.82,0,0,0,.81-.68l1.09-6.4a.83.83,0,0,0-.81-1H260.11A.83.83,0,0,0,259.3,432.84Z" style="fill:#455a64"></path><path d="M463.37,409.18l0,.32c.16,1.77.32,3.54.47,5.3h14.35l0-.35c-.16-1.76-.31-3.51-.47-5.27H463.37Z" style="fill:#455a64"></path><path d="M245.54,416.33H213a.42.42,0,0,0-.41.34l-1.2,5.23a.42.42,0,0,0,.42.52H245a.56.56,0,0,1,0-.13l.15-.86c.26-1.53.53-3.07.79-4.6A.42.42,0,0,0,245.54,416.33Z" style="fill:#455a64"></path><path d="M467.89,424s0-.05,0-.08H446.6l1.09,6.67H469C468.6,428.43,468.24,426.24,467.89,424Z" style="fill:#455a64"></path><path d="M229.58,442.26l-1.29,6.51a.66.66,0,0,0,.64.78h21.48a.66.66,0,0,0,.64-.53l1.23-6.51a.66.66,0,0,0-.64-.77H230.22A.65.65,0,0,0,229.58,442.26Z" style="fill:#455a64"></path><path d="M253.91,442.43l-1.27,6.07a.87.87,0,0,0,.85,1.05H275a.88.88,0,0,0,.87-.76l.81-6.07a.87.87,0,0,0-.86-1h-21A.87.87,0,0,0,253.91,442.43Z" style="fill:#455a64"></path><path d="M278.21,442.4l-.8,6.29a.77.77,0,0,0,.76.86h11.71a.77.77,0,0,0,.76-.69l.6-6.29a.75.75,0,0,0-.75-.83H279A.76.76,0,0,0,278.21,442.4Z" style="fill:#455a64"></path><path d="M228.94,432.72l-1.69,6.56a.73.73,0,0,0,.71.92h27.92a.74.74,0,0,0,.73-.61c.36-2.1.72-4.2,1.21-6.3.13-.8-.27-1.13-.89-1.13H229.66A.75.75,0,0,0,228.94,432.72Z" style="fill:#455a64"></path><path d="M305.82,441.74H294.24a1.18,1.18,0,0,0-1.18,1.07l-.54,5.42a1.2,1.2,0,0,0,1.19,1.32H305.9a1.2,1.2,0,0,0,1.19-1.21l-.07-5.43A1.19,1.19,0,0,0,305.82,441.74Z" style="fill:#455a64"></path><path d="M431.28,432.16h-19.5a.62.62,0,0,0-.61.69l.73,6.8a.61.61,0,0,0,.62.55H432a.61.61,0,0,0,.61-.68l-.73-6.81A.62.62,0,0,0,431.28,432.16Z" style="fill:#455a64"></path><path d="M236.49,409.18l-.08.46q-.45,2.58-.89,5.16h22.35c0-.15,0-.3.05-.45.15-1.72.31-3.45.46-5.17Z" style="fill:#455a64"></path><path d="M208.88,432.72l-1.5,6.6a.71.71,0,0,0,.7.88h16.78a.72.72,0,0,0,.7-.54l1.71-6.6a.71.71,0,0,0-.7-.9h-17A.73.73,0,0,0,208.88,432.72Z" style="fill:#455a64"></path><path d="M287.28,402c-.19,1.87-.37,3.74-.56,5.62H308c0-.15,0-.3,0-.45.2-2,.41-4,.61-6l-21.32,0Z" style="fill:#455a64"></path><path d="M213.28,414.8h20.49l.23-.2c.3-1.71.6-3.43.89-5.14a.24.24,0,0,0-.23-.28H214.45a.26.26,0,0,0-.24.19L213,414.51A.24.24,0,0,0,213.28,414.8Z" style="fill:#455a64"></path><path d="M210.72,424.65l-1.11,4.88a.9.9,0,0,0,.87,1.1H248a.89.89,0,0,0,.88-.75l.84-4.88a.89.89,0,0,0-.88-1H211.6A.91.91,0,0,0,210.72,424.65Z" style="fill:#455a64"></path><path d="M264,402l-.45,5.64h21.59l.05-.45q.3-3,.61-6l-21.73,0Z" style="fill:#455a64"></path><path d="M431.61,409.18l0,.32c.16,1.77.32,3.54.47,5.3h14.35l0-.35c-.16-1.76-.31-3.51-.47-5.27Z" style="fill:#455a64"></path><path d="M207,442.22l-1.5,6.56a.63.63,0,0,0,.61.77h20.27A.64.64,0,0,0,227,449l1.27-6.56a.62.62,0,0,0-.61-.74H207.56A.61.61,0,0,0,207,442.22Z" style="fill:#455a64"></path><path d="M216,401.48,214.74,407a.5.5,0,0,0,.49.61H237l.06-.31c.34-2,.69-4,1-6a.66.66,0,0,1,.11-.24l-21.74,0A.49.49,0,0,0,216,401.48Z" style="fill:#455a64"></path><path d="M476.15,432.16H457.21a.62.62,0,0,0-.62.69l.82,6.81a.61.61,0,0,0,.61.54h18.39a.62.62,0,0,0,.62-.69Z" style="fill:#455a64"></path><path d="M547.4,441.74l-13.53-.07a.5.5,0,0,0-.49.53l.52,6.77a.49.49,0,0,0,.48.46l15,.11a.5.5,0,0,0,.48-.63l-2-6.82A.49.49,0,0,0,547.4,441.74Z" style="fill:#455a64"></path><path d="M462.2,441.74H448.63a1,1,0,0,0-1,1.07l.63,5.87a1,1,0,0,0,1,.87h13.55a1,1,0,0,0,1-1.08l-.61-5.86A1,1,0,0,0,462.2,441.74Z" style="fill:#455a64"></path><path d="M508.42,441.74H485.66a.59.59,0,0,0-.59.65l.67,6.63a.6.6,0,0,0,.59.53H509a.59.59,0,0,0,.58-.64l-.55-6.63A.58.58,0,0,0,508.42,441.74Z" style="fill:#455a64"></path><path d="M532.42,432.16H517.67a.61.61,0,0,0-.61.69l.81,6.81a.62.62,0,0,0,.61.54h14.76a.62.62,0,0,0,.61-.69l-.81-6.8A.62.62,0,0,0,532.42,432.16Z" style="fill:#455a64"></path><path d="M544.5,432.16h-9.31a.61.61,0,0,0-.61.69l.82,6.81a.62.62,0,0,0,.62.54h10.47a.62.62,0,0,0,.6-.79l-2-6.8A.62.62,0,0,0,544.5,432.16Z" style="fill:#455a64"></path><path d="M524.08,402.17c.1,1.82.19,3.65.29,5.48h13.44L536,401.42H524C524.05,401.66,524.07,401.91,524.08,402.17Z" style="fill:#455a64"></path><path d="M444.91,441.74H429.47a1.22,1.22,0,0,0-1.22,1.33l.47,5.36a1.22,1.22,0,0,0,1.22,1.12h15.55a1.23,1.23,0,0,0,1.22-1.36l-.58-5.36A1.22,1.22,0,0,0,444.91,441.74Z" style="fill:#455a64"></path><path d="M333.2,433l-.25,6.4a.82.82,0,0,0,.82.85h20.09a.82.82,0,0,0,.82-.79l.24-6.4a.82.82,0,0,0-.82-.85H334A.81.81,0,0,0,333.2,433Z" style="fill:#455a64"></path><path d="M251.46,424l-1.13,6.67h22.46l1.1-6.67Z" style="fill:#455a64"></path><path d="M309.94,433l-.25,6.4a.82.82,0,0,0,.82.85H330.6a.82.82,0,0,0,.82-.79l.24-6.4a.82.82,0,0,0-.82-.85H310.76A.81.81,0,0,0,309.94,433Z" style="fill:#455a64"></path><path d="M378.31,432.16H356.49l-.31,8h23Z" style="fill:#455a64"></path><path d="M421.72,424h-23a.62.62,0,0,0-.61.73l1,5.43a.61.61,0,0,0,.61.51H422.6a.62.62,0,0,0,.61-.72l-.88-5.43A.62.62,0,0,0,421.72,424Z" style="fill:#455a64"></path><path d="M333.59,409.5c-.15,1.77-.31,3.54-.47,5.3h14.74l0-.35c.16-1.76.31-3.51.47-5.27H333.62Z" style="fill:#455a64"></path><path d="M415.11,409.5l.51,5.3h15l0-.35c-.16-1.76-.31-3.51-.47-5.27h-15Z" style="fill:#455a64"></path><path d="M382.59,409.49c.22,1.77.45,3.54.67,5.31h15.09l0-.15-1-5.47H382.55Z" style="fill:#455a64"></path><path d="M317.35,409.18l0,.32c-.16,1.77-.32,3.54-.47,5.3h14.74l0-.35c.15-1.76.31-3.51.47-5.27H317.35Z" style="fill:#455a64"></path><path d="M489.06,424H470.14a.62.62,0,0,0-.61.72l.89,5.43a.61.61,0,0,0,.61.52h18.91a.62.62,0,0,0,.61-.72l-.88-5.43A.62.62,0,0,0,489.06,424Z" style="fill:#455a64"></path><path d="M333,402l-.57,5.62h22.32v-6.42l-21.67,0C333,401.49,333,401.76,333,402Z" style="fill:#455a64"></path><path d="M432.2,402.17c.1,1.82.2,3.65.29,5.48h23.38v-.14l-.33-6.17-23.37,0C432.17,401.6,432.19,401.88,432.2,402.17Z" style="fill:#455a64"></path><path d="M379.21,401.27l.05.9c.09,1.82.19,3.65.29,5.48h24.83l-1.11-6.35v0l-24.06,0Z" style="fill:#455a64"></path><path d="M404.91,401.81l1,5.84h25v-.14l-.33-6.2-25.8,0Z" style="fill:#455a64"></path><path d="M356.28,401.24v6.41H378v-.14l-.33-6.24h0Z" style="fill:#455a64"></path><path d="M310.14,402l-.57,5.62h21.32c0-.15,0-.3,0-.45.21-2,.41-4,.61-6l-21.32,0C310.19,401.47,310.16,401.75,310.14,402Z" style="fill:#455a64"></path><path d="M517.66,424H506.08a.62.62,0,0,0-.61.72l.89,5.43a.61.61,0,0,0,.61.52h11.57a.62.62,0,0,0,.61-.72l-.88-5.43A.62.62,0,0,0,517.66,424Z" style="fill:#455a64"></path><path d="M526.93,409.5c.15,1.77.31,3.54.47,5.3h12.5l-1.64-5.62H526.9Z" style="fill:#455a64"></path><path d="M511,409.18c0,.11,0,.21,0,.32l.48,5.3h14.34l0-.35c-.15-1.76-.31-3.51-.47-5.27Z" style="fill:#455a64"></path><path d="M479.43,402.17c.1,1.82.2,3.65.29,5.48h20.79v-.14l-.33-6.13-20.79,0C479.4,401.63,479.42,401.9,479.43,402.17Z" style="fill:#455a64"></path><path d="M457.11,402.17c.1,1.82.19,3.65.29,5.48h20.79v-.14c-.11-2.05-.21-4.1-.32-6.15l-20.79,0C457.08,401.62,457.1,401.89,457.11,402.17Z" style="fill:#455a64"></path><path d="M533.4,400.8c0,.14-71,.26-158.57.26s-158.58-.12-158.58-.26,71-.26,158.58-.26S533.4,400.66,533.4,400.8Z" style="fill:#fff"></path></g><g id="freepik--Coffee--inject-6"><ellipse cx="104.12" cy="458.88" rx="37.73" ry="9.29" style="fill:#e0e0e0"></ellipse><g style="opacity:0.30000000000000004"><path d="M122.15,460.45c0,2.21-7.79,4-17.4,4s-17.41-1.79-17.41-4,7.79-4,17.41-4S122.15,458.24,122.15,460.45Z"></path></g><path d="M138.83,458.88l-.1.14c-.08.09-.18.24-.34.41a8.18,8.18,0,0,1-1.57,1.29,17.8,17.8,0,0,1-2.88,1.46,36.1,36.1,0,0,1-4.06,1.31c-3.06.82-6.78,1.43-10.91,2.08a93.84,93.84,0,0,1-13.54,1.12,123.89,123.89,0,0,1-13.58-.56,93.41,93.41,0,0,1-11-1.68,38.3,38.3,0,0,1-7.15-2.19c-.41-.18-.75-.36-1.06-.51s-.54-.31-.74-.44l-.44-.3-.14-.11.15.1.45.28.75.42c.3.14.65.33,1.06.49a39.67,39.67,0,0,0,7.15,2.14,93.86,93.86,0,0,0,11,1.63,123.81,123.81,0,0,0,13.57.55,93.79,93.79,0,0,0,13.52-1.1c4.13-.64,7.84-1.24,10.9-2a33.56,33.56,0,0,0,4.05-1.29,16.79,16.79,0,0,0,2.88-1.42,8.33,8.33,0,0,0,1.58-1.26,4.41,4.41,0,0,0,.35-.39Z" style="fill:#263238"></path><path d="M66.45,418.7s-.29,43.63,37,44.51h.23c37.32-.88,38.08-45,38.08-45Z" style="fill:#90CAF9"></path><g style="opacity:0.30000000000000004"><path d="M102.37,460.48c-5.45-1-9.41-1.6-16.06-5.67-4.45-2.72-7.7-6.62-10.86-10.77s-5.11-9.3-7.65-13.8c2.72,13,10.92,32.38,35.68,33h.23a38,38,0,0,0,14.41-3C113.17,460.36,107.26,461.36,102.37,460.48Z"></path></g><ellipse cx="104.12" cy="418.7" rx="37.67" ry="10.86" style="fill:#90CAF9"></ellipse><g style="opacity:0.30000000000000004"><path d="M71.77,421.33c4.36-3.46,17.13-6,32.21-6s27.85,2.51,32.22,6a3.51,3.51,0,0,0,1.6-2.63c0-4.75-15.14-8.6-33.82-8.6S70.16,414,70.16,418.7A3.5,3.5,0,0,0,71.77,421.33Z"></path></g><path d="M141.79,418.7a3.88,3.88,0,0,0-.42-1.59,6.5,6.5,0,0,0-1.25-1.58,13.7,13.7,0,0,0-2.23-1.6c-3.61-2.08-9.47-3.8-16.82-4.86A114.34,114.34,0,0,0,109,408a129.41,129.41,0,0,0-13.94.24,93.34,93.34,0,0,0-15.22,2.25c-1.3.31-2.6.69-3.89,1.1a34.22,34.22,0,0,0-3.82,1.48,16.65,16.65,0,0,0-3.54,2.15,6.74,6.74,0,0,0-1.39,1.53,3.5,3.5,0,0,0-.63,1.94,3.44,3.44,0,0,0,.62,1.94,6.58,6.58,0,0,0,1.4,1.53,16,16,0,0,0,3.53,2.16,33.63,33.63,0,0,0,3.83,1.48c1.29.41,2.58.79,3.88,1.1A94.72,94.72,0,0,0,95,429.16a129.41,129.41,0,0,0,13.94.24,114.78,114.78,0,0,0,12.11-1.06c7.34-1.06,13.2-2.78,16.81-4.86a13.13,13.13,0,0,0,2.23-1.61,6.47,6.47,0,0,0,1.25-1.57,3.88,3.88,0,0,0,.42-1.6s0,.15,0,.43a3.68,3.68,0,0,1-.36,1.19,6.46,6.46,0,0,1-1.24,1.59,12.87,12.87,0,0,1-2.24,1.63c-3.61,2.11-9.47,3.84-16.83,4.92A111.94,111.94,0,0,1,109,429.54a127,127,0,0,1-14-.22,92.87,92.87,0,0,1-15.26-2.25c-1.3-.31-2.6-.68-3.9-1.1A33.35,33.35,0,0,1,72,424.49a16.19,16.19,0,0,1-3.57-2.18A6.73,6.73,0,0,1,67,420.74a3.5,3.5,0,0,1,0-4.08,6.85,6.85,0,0,1,1.43-1.56A16.19,16.19,0,0,1,72,412.92a34.74,34.74,0,0,1,3.85-1.49c1.29-.41,2.59-.79,3.9-1.1A93.79,93.79,0,0,1,95,408.09a127,127,0,0,1,14-.22A111.94,111.94,0,0,1,121.09,409c7.36,1.08,13.22,2.81,16.83,4.92a12.87,12.87,0,0,1,2.24,1.63,6.46,6.46,0,0,1,1.24,1.59,3.68,3.68,0,0,1,.36,1.19C141.79,418.56,141.79,418.7,141.79,418.7Z" style="fill:#263238"></path><path d="M71.77,421.33c4.36,3.47,17.13,6,32.21,6s27.85-2.51,32.22-6c-4.37-3.46-17.14-6-32.22-6S76.13,417.87,71.77,421.33Z" style="fill:#6f4439"></path><path d="M104.65,425.88a1.37,1.37,0,0,0-.68-.28,2.2,2.2,0,0,0-1,.18.35.35,0,0,0-.25.19c-.06.18.13.35.3.42a2.41,2.41,0,0,0,1.45.15c.19,0,.42-.16.42-.36A.43.43,0,0,0,104.65,425.88Z" style="fill:#6f4439"></path><path d="M102.38,426.62a.77.77,0,0,0-.28-.12.92.92,0,0,0-.43.08.14.14,0,0,0-.1.07c0,.08.06.14.13.18a1,1,0,0,0,.58.06c.08,0,.17-.07.17-.15A.19.19,0,0,0,102.38,426.62Z" style="fill:#6f4439"></path><path d="M140.81,430.33a3.5,3.5,0,0,1,.52-.17l-.73.2a6,6,0,0,1,1.46-.2h-.79a6.28,6.28,0,0,1,1.73.24l-.76-.21a7.76,7.76,0,0,1,1.83.78l-.66-.39a8.5,8.5,0,0,1,1.58,1.23l-.53-.53a7.76,7.76,0,0,1,1.13,1.47l-.38-.65a8.54,8.54,0,0,1,.86,2.07l-.2-.74a10.74,10.74,0,0,1,.36,2.77v-.79a12.83,12.83,0,0,1-.48,3.42l.21-.76a15.1,15.1,0,0,1-1.55,3.63l.39-.66a16.25,16.25,0,0,1-2.61,3.34l.54-.52a16.81,16.81,0,0,1-3.19,2.43l.65-.38a15.57,15.57,0,0,1-3.7,1.54l.73-.2a16.57,16.57,0,0,1-4.26.58h.79a15.75,15.75,0,0,1-3.61-.42A3,3,0,0,0,128,448a3,3,0,0,0-1.13,1.95,3,3,0,0,0,.58,2.18c.18.18.35.36.53.53a2.86,2.86,0,0,0,1.42.6,18.62,18.62,0,0,0,5.27.39,19.13,19.13,0,0,0,5.12-1.06,18.66,18.66,0,0,0,8.16-5.74,19.24,19.24,0,0,0,2.62-4.17,15.16,15.16,0,0,0,.78-2,19.07,19.07,0,0,0,.64-2.81,17.07,17.07,0,0,0,.11-2.86,10,10,0,0,0-.3-2.11A10.66,10.66,0,0,0,145.2,425a9.92,9.92,0,0,0-2.51-.62,11.5,11.5,0,0,0-1.66,0,5.4,5.4,0,0,0-.9.11,11.06,11.06,0,0,0-1.59.45,3,3,0,0,0-1.57,1.57,2.94,2.94,0,0,0,1.56,3.86,3.2,3.2,0,0,0,2.28,0Z" style="fill:#90CAF9"></path><path d="M139.86,430.57a1.25,1.25,0,0,1-.38.09,3.41,3.41,0,0,1-1.08,0,2.46,2.46,0,0,1-1.4-.78,2.18,2.18,0,0,1-.46-.85,2.73,2.73,0,0,1,0-1,5.9,5.9,0,0,1,.61-1.86,3.22,3.22,0,0,1,1.09-1.18,2.37,2.37,0,0,1,1-.35,1.06,1.06,0,0,1,.4,0s-.14,0-.39,0a2.49,2.49,0,0,0-1,.38,3.15,3.15,0,0,0-1,1.16,5.75,5.75,0,0,0-.58,1.81,2.37,2.37,0,0,0,0,1,2,2,0,0,0,.41.79,2.51,2.51,0,0,0,1.31.76,3.81,3.81,0,0,0,1,.09A1.44,1.44,0,0,1,139.86,430.57Z" style="fill:#263238"></path><path d="M134.26,447.82l-.11.06a1.76,1.76,0,0,1-.36.13,3.41,3.41,0,0,1-1.36.05c-.58-.06-1.24-.26-2-.4a5.52,5.52,0,0,0-1.16-.08,2.45,2.45,0,0,0-1.18.31,1.93,1.93,0,0,0-.79.91,3.88,3.88,0,0,0-.27,1.13,4.43,4.43,0,0,0,.2,1.95,2.16,2.16,0,0,0,.8,1c.26.18.44.22.43.24a.41.41,0,0,1-.13,0A1.47,1.47,0,0,1,128,453a2.11,2.11,0,0,1-.87-1.05,4.25,4.25,0,0,1-.25-2,3.72,3.72,0,0,1,.27-1.19,2.06,2.06,0,0,1,.86-1,2.74,2.74,0,0,1,1.26-.34,6.62,6.62,0,0,1,1.2.1c.75.16,1.4.36,2,.44a3.69,3.69,0,0,0,1.34,0C134.09,447.88,134.25,447.8,134.26,447.82Z" style="fill:#263238"></path><g style="opacity:0.30000000000000004"><path d="M136.2,421.33c2.63-4.69,2.4-6.75,2.8-12.11.7-9.21-4.42-16.37-10.54-18.64-4.34-1.61-9.34-.47-13.52-2.94a6.08,6.08,0,0,1-2.72-3.25c-1-3,1-4.88,2.52-6.85a21.52,21.52,0,0,0,3.52-19.13,11.63,11.63,0,0,0-4.42-6.54,6.86,6.86,0,0,0-5-1,1.86,1.86,0,0,0-1.08,2.9c2.83,4.15,2.42,10.42-1.26,13.93-3,2.89-7.4,3.73-11.51,4.44-4.7.79-9.73,1.72-12.79,5.63a7.45,7.45,0,0,0-1.35,6.95c2.26,6.73,11.86,2.64,14.14,7.94A5.33,5.33,0,0,1,93.09,399c-4,2.9-8.8,3.93-13.23,5.83-3.36,1.44-6.63,3.5-8.44,6.67s-1.71,7.64,1,10.08c0,0,16.9,5.32,35.2,4.49S136.2,421.33,136.2,421.33Z" style="fill:#e0e0e0"></path></g></g></svg>
